<svg width="258" height="143" viewBox="0 0 258 143" fill="none" xmlns="http://www.w3.org/2000/svg">
<path d="M12.5 117.5L0.566243 142.5L29.4338 142.5L17.5 117.5L12.5 117.5ZM15 18.5V16C14.337 16 13.7011 16.2634 13.2322 16.7322C12.7634 17.2011 12.5 17.837 12.5 18.5L15 18.5ZM257.268 20.2678C258.244 19.2915 258.244 17.7085 257.268 16.7322L241.358 0.82233C240.382 -0.15398 238.799 -0.15398 237.822 0.82233C236.846 1.79864 236.846 3.38155 237.822 4.35786L251.964 18.5L237.822 32.6421C236.846 33.6184 236.846 35.2014 237.822 36.1777C238.799 37.154 240.382 37.154 241.358 36.1777L257.268 20.2678ZM17.5 120L17.5 18.5L12.5 18.5L12.5 120L17.5 120ZM15 21L255.5 21V16L15 16V21Z" fill="#BDC3C7"/>
</svg>
