<svg width="450" height="130" viewBox="0 0 450 130" fill="none" xmlns="http://www.w3.org/2000/svg">
<path d="M25 12.5L0 0.566243V29.4338L25 17.5V12.5ZM431 15H433.5C433.5 13.6193 432.381 12.5 431 12.5V15ZM429.232 128.768C430.209 129.744 431.791 129.744 432.768 128.768L448.678 112.858C449.654 111.882 449.654 110.299 448.678 109.322C447.701 108.346 446.118 108.346 445.142 109.322L431 123.464L416.858 109.322C415.882 108.346 414.299 108.346 413.322 109.322C412.346 110.299 412.346 111.882 413.322 112.858L429.232 128.768ZM22.5 17.5H431V12.5H22.5V17.5ZM428.5 15V127H433.5V15H428.5Z" fill="#BDC3C7"/>
</svg>
