<svg width="35" height="35" viewBox="0 0 35 35" fill="none" xmlns="http://www.w3.org/2000/svg">
<path d="M7.52028 32.1888L5.26367 6.8783H30.0599L27.8009 32.1849L17.6466 35L7.52028 32.1888Z" fill="#264DE4"/>
<path d="M25.867 30.5735L27.7975 8.94788H17.6619V32.8483L25.867 30.5735Z" fill="#2965F1"/>
<path d="M10.437 18.3352L10.7152 21.4394H17.6619V18.3352H10.437Z" fill="#EBEBEB"/>
<path d="M10.1601 15.1564H17.6619V12.0521H17.6511H9.87793L10.1601 15.1564Z" fill="#EBEBEB"/>
<path d="M17.6475 29.6308L17.6617 29.6268V26.3971L17.6481 26.4007L14.1909 25.4672L13.9699 22.9915H12.29H10.8538L11.2887 27.8655L17.6475 29.6308Z" fill="#EBEBEB"/>
<path d="M11.0994 0H14.8591V1.57227H12.6716V3.14453H14.8591V4.7168H11.0994V0Z" fill="black"/>
<path d="M15.6111 0H19.3708V1.36719H17.1833V1.64062H19.3708V4.78516H15.6111V3.34961H17.7986V3.07617H15.6111V0Z" fill="black"/>
<path d="M20.1228 0H23.8826V1.36719H21.6951V1.64062H23.8826V4.78516H20.1228V3.34961H22.3103V3.07617H20.1228V0Z" fill="black"/>
<path d="M25.4273 12.0521H17.6511V15.1564H22.0253L21.7428 18.3352H17.6511V21.4394H21.4736L21.1133 25.4653L17.6511 26.3998V29.6294L24.015 27.8656L24.0617 27.3412L24.7911 19.1687L24.8669 18.3352L25.4273 12.0521Z" fill="white"/>
</svg>
