<svg width="73" height="26" viewBox="0 0 73 26" fill="none" xmlns="http://www.w3.org/2000/svg">
<g clip-path="url(#clip0_145_501)">
<path d="M9.28055 0.872314H13.1939V18.9861C11.1864 19.3672 9.71251 19.5197 8.11172 19.5197C3.33427 19.5195 0.843994 17.3599 0.843994 13.2176C0.843994 9.22805 3.48689 6.6363 7.57796 6.6363C8.21319 6.6363 8.69597 6.68695 9.28055 6.83941V0.872314ZM9.28055 9.99017C8.82318 9.83788 8.44204 9.78706 7.95926 9.78706C5.97717 9.78706 4.83359 11.0069 4.83359 13.1413C4.83359 15.2251 5.92635 16.3686 7.93385 16.3686C8.36565 16.3686 8.72154 16.3432 9.28055 16.2671V9.99017Z" fill="#092E20"/>
<path d="M19.4194 6.91569V15.9873C19.4194 19.113 19.1908 20.6121 18.5047 21.9082C17.8693 23.1536 17.0306 23.9411 15.3028 24.8052L11.6689 23.0772C13.3969 22.2641 14.2355 21.5528 14.769 20.4597C15.3282 19.3417 15.5062 18.0456 15.5062 14.6406V6.91569H19.4194ZM15.5062 0.893188H19.4194V4.90819H15.5062V0.893188Z" fill="#092E20"/>
<path d="M21.783 7.80502C23.5112 6.99208 25.1628 6.63635 26.967 6.63635C28.9745 6.63635 30.2958 7.16978 30.8804 8.21173C31.2105 8.79615 31.3121 9.55843 31.3121 11.185V19.1384C29.5586 19.3925 27.348 19.5705 25.7218 19.5705C22.4438 19.5705 20.9697 18.4266 20.9697 15.8857C20.9697 13.1411 22.9264 11.8707 27.7293 11.464V10.6C27.7293 9.88858 27.3735 9.63465 26.3824 9.63465C24.9341 9.63465 23.3077 10.0412 21.7828 10.8291L21.783 7.80502ZM27.9071 14.0308C25.3151 14.2849 24.4765 14.6916 24.4765 15.708C24.4765 16.4703 24.9595 16.826 26.0267 16.826C26.6113 16.826 27.1447 16.7753 27.9071 16.6483V14.0308Z" fill="#092E20"/>
<path d="M33.2183 7.52552C35.5305 6.91569 37.4364 6.63635 39.3676 6.63635C41.3751 6.63635 42.8236 7.09356 43.6879 7.98305C44.501 8.82139 44.7549 9.73613 44.7549 11.6931V19.3671H40.8416V11.8456C40.8416 10.3464 40.3334 9.78711 38.9359 9.78711C38.4023 9.78711 37.9195 9.83793 37.1315 10.0666V19.3671H33.2183V7.52552Z" fill="#092E20"/>
<path d="M46.2762 21.5017C47.6486 22.2132 49.0207 22.5433 50.4691 22.5433C53.0354 22.5433 54.1282 21.5017 54.1282 19.0113C54.1282 18.9858 54.1282 18.9604 54.1282 18.935C53.3659 19.316 52.6034 19.4686 51.5872 19.4686C48.1566 19.4686 45.9709 17.207 45.9709 13.6241C45.9709 9.17686 49.1984 6.6615 54.9157 6.6615C56.593 6.6615 58.1432 6.8392 60.0236 7.22034L58.6836 10.0431C57.6417 9.8398 58.6002 10.0159 57.8128 9.93963V10.3463L57.8635 11.9978L57.8887 14.1325C57.9142 14.6659 57.9142 15.1997 57.9397 15.7333C57.9397 16.2161 57.9397 16.4449 57.9397 16.8006C57.9397 20.155 57.6602 21.7304 56.8217 23.0263C55.6019 24.9323 53.4928 25.8724 50.4943 25.8724C48.9696 25.8724 47.6485 25.6437 46.276 25.11V21.5017H46.2762ZM54.0521 9.81242C54.0013 9.81242 53.9506 9.81242 53.9252 9.81242H53.6456C52.8834 9.78701 51.9941 9.99012 51.384 10.3713C50.444 10.905 49.9609 11.8707 49.9609 13.2428C49.9609 15.1997 50.9268 16.3177 52.6546 16.3177C53.1882 16.3177 53.6203 16.2159 54.1283 16.0636V15.7839V14.7169C54.1283 14.2595 54.1031 13.751 54.1031 13.2176L54.0778 11.4135L54.0523 10.1175V9.81242H54.0521Z" fill="#092E20"/>
<path d="M66.0987 6.58533C70.0119 6.58533 72.4007 9.05036 72.4007 13.0398C72.4007 17.1312 69.9106 19.6977 65.9462 19.6977C62.0327 19.6977 59.6187 17.2327 59.6187 13.2686C59.6188 9.15167 62.1093 6.58533 66.0987 6.58533ZM66.0221 16.5464C67.5216 16.5464 68.4111 15.3012 68.4111 13.1413C68.4111 11.0069 67.547 9.73625 66.048 9.73625C64.4977 9.73625 63.6081 10.9816 63.6081 13.1413C63.6082 15.3014 64.4977 16.5464 66.0221 16.5464Z" fill="#092E20"/>
</g>
<defs>
<clipPath id="clip0_145_501">
<rect width="71.5568" height="25" fill="white" transform="translate(0.843994 0.872314)"/>
</clipPath>
</defs>
</svg>
