<svg width="65" height="26" viewBox="0 0 65 26" fill="none" xmlns="http://www.w3.org/2000/svg">
<g clip-path="url(#clip0_145_498)">
<path d="M10.2784 22.7222C9.26697 21.9267 8.18806 21.1639 7.4508 20.0899C5.89949 18.196 4.70505 16.0031 3.88848 13.6988C3.39492 12.2003 3.22588 10.5938 2.58962 9.15333C1.92403 8.10707 2.70368 6.96334 3.84972 6.63077C4.35996 6.53284 5.25713 6.05157 4.17416 6.39556C3.20324 7.1079 3.10928 5.74894 4.10488 5.66289C4.78433 5.57258 5.03445 5.01636 4.8021 4.51564C4.07274 4.04002 6.57067 3.5173 5.31381 2.80761C4.00451 1.39502 7.14525 1.12309 6.37038 2.72736C6.1849 3.96098 8.565 2.50126 8.01276 3.92583C8.57405 4.60995 10.1146 4.08153 10.0764 5.0413C10.8941 5.0975 11.1747 5.78547 11.9423 5.83829C12.7378 6.19753 14.1799 6.48062 14.4506 7.37706C13.6613 8.00189 11.8338 6.08641 11.746 7.816C11.9844 10.371 11.9236 13.003 12.8585 15.4361C13.3006 16.9094 14.3725 18.0692 15.3405 19.2166C16.2668 20.3404 17.5214 21.1315 18.8001 21.7976C19.9218 22.3267 21.1312 22.6775 22.3537 22.8977C22.8495 22.5184 23.725 21.1084 24.4985 21.703C24.5352 22.3711 22.9632 23.0995 24.4245 23.0257C25.2826 22.7669 25.8778 23.6893 26.5844 22.8573C27.2354 23.6284 29.2902 22.3646 28.827 23.9407C28.2007 24.3449 27.2872 24.1007 26.6598 24.6566C25.6254 24.1399 24.8019 25.1189 23.6567 24.9951C22.385 25.2228 21.0912 25.3148 19.8019 25.3168C17.6867 25.1497 15.5267 25.0792 13.5145 24.3428C12.3809 24.0134 11.2747 23.3679 10.2784 22.7222ZM12.0648 23.4962C13.1717 23.9749 14.254 24.4794 15.4671 24.6315C17.3916 24.8992 19.3791 25.3109 21.3106 24.9354C20.4364 24.5407 19.5327 25.0891 18.6618 24.6531C17.6173 24.8779 16.4965 24.5959 15.4346 24.457C14.2271 23.9192 12.924 23.5493 11.7933 22.8512C10.3803 22.3351 12.524 23.513 12.9056 23.6084C13.7889 24.1098 11.9343 23.3514 11.6728 23.143C10.933 22.728 10.8388 22.8147 11.5996 23.2362C11.7528 23.3259 11.9042 23.4198 12.0648 23.4962ZM9.95857 22.0077C11.0312 22.405 9.95384 21.2534 9.46233 21.3204C9.24457 20.9426 8.63035 20.7039 9.06362 20.501C8.28424 20.7715 8.24719 19.472 7.88084 19.6577C7.05633 19.3974 7.55994 18.4751 6.5778 17.9087C6.48815 17.3119 5.602 16.7943 5.31935 15.8941C5.19452 15.4332 4.31819 14.1096 4.85652 15.3414C5.31488 16.5272 6.12133 17.5426 6.79245 18.5569C7.31357 19.5226 7.92891 20.5319 8.87797 21.1344C9.1979 21.4413 9.50679 21.9115 9.95857 22.0077ZM6.86862 18.6152C7.06479 18.9658 6.90605 18.4532 6.86862 18.6152ZM11.2431 22.484C11.4806 22.3776 10.9016 22.35 11.2431 22.484ZM11.8254 22.6964C11.7651 22.4031 11.5596 22.8604 11.8254 22.6964ZM12.5542 23.0004C12.9012 22.67 12.0195 22.7921 12.5542 23.0004ZM13.8033 23.6966C14.0142 23.385 13.1285 23.579 13.8033 23.6966ZM11.4046 22.0245C11.9436 21.6758 10.7085 22.0197 11.4046 22.0245ZM11.9514 22.2971C11.9361 22.1128 11.7565 22.3797 11.9514 22.2971ZM14.684 24.0027C15.1233 24.2799 17.2492 24.6103 15.918 24.1163C15.6952 24.1633 13.4496 23.4812 14.684 24.0027ZM10.3459 20.624C10.3032 20.4392 9.66404 20.42 10.3459 20.624ZM11.618 21.3654C11.9491 21.1345 10.9309 21.1873 11.618 21.3654ZM12.6881 22.0215C13.1631 21.8424 11.9174 21.8416 12.6881 22.0215ZM9.82825 20.0603C10.3437 20.4556 11.9071 20.1109 10.6177 19.8243C10.0308 19.5115 8.7081 19.2973 9.60967 20.0129L9.82825 20.0603ZM13.4128 22.2481C13.6275 21.8822 12.5124 22.0392 13.4128 22.2481ZM12.3236 21.3824C13.584 21.7389 11.2636 20.5853 12.0126 21.2512L12.1786 21.3263L12.3236 21.3824ZM14.5074 22.6446C13.4292 22.48 15.7011 22.656 14.5074 22.6446ZM9.36895 19.3696C9.32233 19.1473 9.07437 19.3883 9.36895 19.3696ZM16.5266 23.7773C16.5585 23.3757 16.1371 24.0761 16.5266 23.7773ZM11.4061 20.6171C11.3339 20.4057 11.0331 20.6085 11.4061 20.6171ZM9.48216 19.2301C10.1675 19.189 8.54392 18.9281 9.48216 19.2301ZM7.20304 17.7569C7.11774 17.4284 6.45731 17.1664 7.20304 17.7569ZM13.1863 21.5541C13.1272 21.5854 13.0608 21.4109 13.1863 21.5541ZM16.9105 23.8394C16.8985 23.6207 16.7076 23.9222 16.9105 23.8394ZM12.8567 21.2137C12.9237 20.9319 12.2723 21.1284 12.8567 21.2137ZM10.0822 19.4554C10.5921 19.4008 9.26551 19.1107 10.0822 19.4554ZM14.7755 22.3716C15.57 22.0569 14.0011 22.218 14.7755 22.3716ZM12.3343 20.7145C13.2499 20.8326 11.2447 20.0917 12.1333 20.6482L12.3343 20.7145ZM15.5166 22.6713C16.3715 22.1602 16.0896 23.868 16.967 22.8155C17.8324 22.1837 16.2196 23.5967 17.2862 22.9282C18.0575 22.4123 19.1968 23.1727 19.9165 23.4209C20.4341 23.3954 20.9373 23.8684 21.4679 23.5807C22.4893 23.3055 19.4705 23.1726 20.2618 22.6845C19.3272 22.9565 18.6367 22.3602 18.1768 21.7616C17.1285 21.5195 15.9163 20.9835 15.3931 20.0558C15.1798 19.7074 15.7013 20.1048 15.209 19.5354C14.5773 18.9736 14.2618 18.3358 13.8378 17.6528C13.3312 17.3825 13.2721 16.587 13.2209 17.6261C13.2249 16.9703 12.6093 16.5289 12.459 16.7124C12.4563 16.0809 13.1179 16.3974 12.6548 15.9302C12.5551 15.2756 12.2269 14.5935 12.1282 13.8544C11.9749 13.4982 12.1066 12.7352 11.6051 13.5416C11.4223 14.3939 11.5444 12.4942 11.8286 13.1207C12.2016 12.4814 11.6947 12.5566 11.6739 12.6454C11.9169 12.106 11.8277 11.341 11.6105 11.6329C11.74 11.0612 11.815 9.52903 11.4168 9.80056C11.6582 9.20278 11.8746 7.06527 10.8265 7.88023C10.4018 7.8862 9.66618 8.03443 9.31847 8.20735C10.4087 8.8083 9.20881 8.42437 8.76503 8.32886C8.7072 8.88492 8.26764 8.64443 7.71848 8.64988C8.5956 8.7584 7.29136 9.54696 6.78818 9.24064C6.1347 9.55297 7.35216 10.3326 6.8013 10.5736C6.869 10.9371 5.80015 10.4424 5.8841 11.2817C5.24969 11.0148 5.79674 12.2772 6.11413 11.8502C7.19315 12.1423 6.87373 12.8081 6.90121 13.4405C6.7254 13.809 6.03322 12.5743 6.74705 12.6315C6.1839 11.7166 6.1241 12.3008 5.65614 12.7258C5.54727 12.7566 6.84981 13.3305 6.0324 13.6142C6.75155 13.7252 6.77201 14.3545 6.91841 14.7527C7.35066 15.2029 7.26219 14.2556 7.77939 14.7967C7.4521 14.3146 6.0458 13.4385 7.17806 13.7195C7.17201 13.2344 6.97328 12.8432 7.32018 12.8527C7.6637 12.2306 6.9604 14.3866 7.73472 13.5959C7.94907 13.5023 8.00216 12.973 8.38744 13.6459C8.94703 14.1964 8.58957 14.5953 7.80019 14.0913C7.94142 14.5703 8.85617 14.7416 8.68427 15.4908C8.86651 16.1497 9.12147 15.907 9.34371 15.8689C9.51805 16.5091 9.61705 16.0384 9.62532 15.7337C10.4236 15.9046 10.2366 16.3764 10.4864 16.7061C11.0364 16.9544 9.69903 15.0232 10.6434 16.1254C11.6369 17.0224 11.016 17.3969 10.1244 17.2532C10.6887 17.2076 10.8707 18.0161 11.5766 17.9877C12.2203 18.2939 12.6561 19.47 11.5465 18.9804C11.1617 18.6335 9.79991 18.2054 10.9122 18.8654C11.9395 19.3411 12.7554 19.6257 13.7462 20.2229C14.4553 20.7291 14.7616 21.3089 15.0304 21.4236C14.4344 21.7083 13.2344 21.1963 14.1255 21.0394C13.5697 20.9382 12.9446 20.6571 13.4769 21.3496C13.9296 21.7276 15.0807 21.6875 15.2871 21.7304C15.1121 22.1158 14.812 22.1464 15.2942 22.1763C14.7562 22.463 15.4667 22.5074 15.5166 22.6713ZM14.4164 19.5643C14.0891 19.222 14.0044 18.5808 14.3583 19.1387C14.5397 19.2116 14.9395 20.1865 14.4164 19.5643ZM17.9994 21.8403C18.2035 21.8271 18.0053 21.9954 17.9994 21.8403ZM13.8995 18.7249C14.0179 19.1241 13.887 18.2074 13.8995 18.7249ZM13.5434 18.2458C14.0625 18.4711 13.1317 17.4503 13.5434 18.2458ZM9.22807 15.2674C9.46996 15.2029 9.34708 15.6811 9.22807 15.2674ZM12.6626 17.129C12.8371 17.597 12.8111 16.5711 12.6626 17.129ZM10.2362 15.4418C10.594 15.7305 10.0652 15.134 10.2362 15.4418ZM12.3185 16.1093C11.9285 15.2354 12.5947 15.632 12.4048 16.2526L12.3185 16.1093ZM8.72753 13.7145C8.55314 13.4278 8.26466 12.5865 8.35753 12.3297C8.44155 12.748 9.24697 14.1297 8.75261 12.9021C8.20631 11.8731 9.40564 13.2361 9.52901 13.4928C9.58646 13.7481 9.19196 13.423 9.45926 14.0217C8.97179 13.3401 9.17149 14.3982 8.72753 13.7145ZM7.61771 12.9498C7.87178 13.4069 7.6634 12.2831 7.61771 12.9498ZM8.11692 13.1216C8.52084 13.8231 8.35514 12.6185 8.11692 13.1216ZM6.91606 12.1927C6.50288 11.7821 6.20387 11.4036 6.9354 11.9378C7.21727 11.9488 6.30915 11.0771 7.00328 11.661C7.73318 11.7941 7.36371 12.8578 6.91606 12.1927ZM7.54686 12.1762C7.78681 11.9384 7.67424 12.4102 7.54686 12.1762ZM7.935 12.3006C8.3765 12.5865 7.57122 11.6187 7.935 12.3006ZM7.1634 11.5632C5.96223 10.4943 8.67275 12.1222 7.35964 11.7614L7.1634 11.5632ZM10.6049 13.5628C10.0852 13.2512 10.4672 11.3687 10.6445 12.6562C11.1498 12.4927 10.6166 13.3211 10.9935 13.3134C10.9341 13.8361 10.7654 14.024 10.6049 13.5628ZM11.8779 14.3152C11.9852 14.703 11.9289 13.7479 11.8779 14.3152ZM11.6568 14.0967C11.714 13.8544 11.6627 14.3821 11.6568 14.0967ZM7.39903 11.212C6.62736 10.1473 9.64172 12.2889 7.89328 11.482C7.71058 11.4342 7.49075 11.4172 7.39903 11.212ZM9.8503 12.5116C10.0134 12.6602 9.77727 11.6151 9.8503 12.5116ZM11.7114 13.7055C11.8554 13.1948 11.7221 14.0433 11.7114 13.7055ZM7.51724 10.8056C7.97588 10.7075 9.4179 11.6111 8.09366 11.0637C7.94653 10.9008 7.63286 10.9749 7.51724 10.8056ZM11.4557 12.7686C11.5047 11.8519 11.7295 12.221 11.4574 12.8998L11.4557 12.7686ZM7.85865 10.4867C8.04551 10.2125 7.36259 9.24735 7.95709 10.1404C8.21397 10.3446 8.70085 10.4824 8.27098 10.5682C8.94706 11.1647 8.10609 10.7299 7.85865 10.4867ZM11.2609 12.4822C11.39 11.438 11.3747 13.094 11.2609 12.4822ZM7.46836 9.52219C7.6111 9.46119 7.54375 9.71238 7.46836 9.52219ZM8.35581 10.0504C8.77713 10.5849 8.5842 9.57116 8.35581 10.0504ZM10.8591 11.4429C10.9063 11.7107 10.8567 11.2589 10.8591 11.4429ZM10.7141 11.1219C11.0373 11.5757 10.3666 10.2647 10.7141 11.1219ZM10.5007 10.5599C10.699 11.0049 10.4424 10.2057 10.5007 10.5599ZM10.8479 9.99554C10.6095 9.57538 11.149 8.144 11.2092 9.03173C10.9576 9.72343 11.1366 10.1104 11.3122 9.18262C11.6364 8.45245 11.2421 10.6235 10.8479 9.99554ZM11.2047 7.86684C11.3087 7.73921 11.2278 8.0206 11.2047 7.86684ZM10.6089 19.6077C10.6266 19.6862 10.4676 19.4844 10.6089 19.6077ZM11.8364 20.2286C12.5191 20.4038 12.5156 20.1224 11.8985 20.0388C11.5666 19.73 10.5193 19.4025 11.4567 20.0005C11.5188 20.1577 11.715 20.1541 11.8364 20.2286ZM9.41216 18.6185C9.7883 18.899 10.829 19.4135 9.94802 18.7253C10.245 18.3802 9.3795 18.1965 9.66662 17.9656C8.93632 17.5187 9.09051 17.5585 9.60216 17.5726C8.72447 17.1803 9.72885 17.2096 9.68156 17.0086C9.34313 16.9417 8.00057 16.4118 8.79039 17.0521C7.98749 16.6427 8.59906 17.2046 8.35638 17.1452C7.53536 16.9213 9.08755 17.7705 8.22599 17.5597C8.697 17.933 9.4938 18.5158 8.42512 17.9547C8.28431 18.1574 9.18988 18.4646 9.41216 18.6185ZM10.6959 19.356C12.2569 19.859 9.93066 18.7415 10.6959 19.356ZM17.2677 23.3372C17.2878 23.0275 17.0543 23.6013 17.2677 23.3372ZM17.9431 23.6214C18.3032 23.2725 17.9578 24.1773 18.5399 23.536C18.5461 23.0769 18.5219 22.8058 17.871 23.3634C17.6916 23.4629 17.6115 23.8861 17.9431 23.6214ZM7.22109 16.8878C7.11049 16.453 6.44582 16.4553 7.22109 16.8878ZM7.94234 17.3604C7.67451 16.9164 6.98672 16.9584 7.94234 17.3604ZM12.0456 19.835C12.4462 20.1909 13.8855 20.0961 12.5322 19.8788C12.3317 19.5824 11.2594 19.6538 12.0456 19.835ZM17.6862 23.3186C18.3028 22.8012 17.0888 23.5494 17.6862 23.3186ZM18.9685 24.1998C18.9724 24.0337 18.7028 24.2725 18.9685 24.1998ZM18.9705 23.9673C18.3089 24.0101 19.6533 23.2439 18.9705 23.9673ZM5.44712 15.4027C4.86519 14.5724 5.08537 14.1991 4.52419 13.5212C4.41795 13.0027 3.56145 11.8263 4.08119 13.0726C4.55724 13.8016 4.6987 14.9302 5.44712 15.4027ZM18.7563 23.7374C20.0125 22.9255 18.2407 23.3837 18.7563 23.7374ZM19.7152 24.113C20.3443 23.5729 19.3173 24 19.7152 24.113ZM7.0073 15.97C7.18733 15.7022 6.54235 15.9358 7.0073 15.97ZM19.515 23.8565C20.1241 23.4638 19.3747 23.5241 19.4046 23.8926L19.515 23.8565ZM11.2492 18.6466C11.2283 18.3814 10.9276 18.6691 11.2492 18.6466ZM11.76 18.9405C11.5977 18.6123 11.5104 18.992 11.76 18.9405ZM20.4923 24.1219C21.2726 23.559 20.0193 24.0141 20.3285 24.2286L20.4923 24.1219ZM20.1935 23.9775C20.8292 23.4448 19.5224 24.2135 20.1935 23.9775ZM21.7201 24.9941C22.1469 24.7083 21.2017 24.9017 21.7201 24.9941ZM7.39871 15.7769C7.97079 15.9051 9.68488 17.1858 8.67364 15.8655C8.15572 15.7122 8.46633 14.4462 7.93805 14.6702C8.29263 15.2626 8.22978 15.5147 7.48532 15.1413C6.54966 14.6845 6.95951 15.3676 7.14237 15.5559C6.89317 15.6125 7.47198 15.7721 7.39871 15.7769ZM4.79234 13.7185C4.89476 13.2949 3.84931 11.3881 4.29866 12.7631C4.46087 13.0511 4.44438 13.597 4.79234 13.7185ZM9.57615 16.6679C9.56215 16.633 9.28157 16.4215 9.57615 16.6679ZM10.3016 16.8367C10.3012 16.3879 9.49973 16.6545 10.3016 16.8367ZM16.5879 20.7996C16.1139 20.7925 16.468 20.493 16.5879 20.7996ZM16.8898 21.0201C16.8452 20.8485 16.7156 21.0532 16.8898 21.0201ZM19.3814 22.5896C19.6211 22.4125 19.0824 22.567 19.3814 22.5896ZM6.09424 14.0509C6.77969 13.7855 5.35983 13.8617 6.09424 14.0509ZM16.0345 20.3133C16.0269 19.8696 15.5975 20.4234 16.0345 20.3133ZM5.82342 13.4198C6.26372 13.2711 5.41611 13.3218 5.82342 13.4198ZM7.10141 14.0389C7.09343 13.893 6.96623 14.0941 7.10141 14.0389ZM22.6891 23.5975C23.2553 23.4827 24.5455 23.8856 24.754 23.4473C24.0665 23.4306 22.3752 22.9623 22.2952 23.5591L22.4457 23.5828L22.6891 23.5975ZM7.50759 14.1412C7.51743 13.6916 7.15694 14.1244 7.50759 14.1412ZM4.14743 11.8104C3.99483 10.9536 3.56704 11.6807 4.14743 11.8104ZM4.9487 12.0118C4.95855 11.7367 4.21529 11.7642 4.9487 12.0118ZM5.40661 12.2367C5.303 12.3721 5.27424 12.1294 5.40661 12.2367ZM8.28782 14.085C8.42346 13.9603 7.96669 13.9927 8.28782 14.085ZM5.10162 11.7294C5.02417 11.0824 4.17357 11.6325 5.10162 11.7294ZM3.45888 10.6635C3.43551 10.3649 3.29879 10.7762 3.45888 10.6635ZM3.70323 10.479C3.66336 10.1249 3.49344 10.5241 3.70323 10.479ZM5.05334 11.2849C5.62424 11.0606 4.01344 10.821 4.93669 11.2425L5.05334 11.2849ZM23.1225 22.4459C23.4879 22.1109 22.658 22.3423 23.1225 22.4459ZM25.3053 23.5774C25.4518 23.1443 24.9366 23.6344 25.3053 23.5774ZM5.19132 10.5773C5.25146 10.1583 4.73871 10.6605 5.19132 10.5773ZM3.27044 9.29029C3.16725 8.69875 3.18136 7.66042 4.16837 8.01132C2.85088 8.2729 5.08023 9.64884 4.7987 8.56248C5.35268 8.58961 5.88241 8.23508 5.59169 8.7731C6.68318 8.65255 7.4399 7.70607 8.49421 7.8387C9.31547 7.73002 10.2134 7.64759 11.0984 7.31701C11.8261 7.26459 12.5265 6.48117 12.1277 6.01682C11.1354 5.93285 10.0966 6.05701 8.99988 6.27501C7.78452 6.52766 6.68057 7.00769 5.45431 7.21374C4.25904 7.3743 5.69472 7.65612 5.35235 7.71891C4.72865 7.93532 6.09617 8.08125 5.27149 8.30939C4.76219 8.21255 4.23207 8.03756 4.44962 7.50084C3.30466 7.64941 2.29857 8.12461 3.20316 9.28975L3.27044 9.29029ZM6.02937 7.88518C6.29782 6.89623 7.46759 8.69897 6.46937 8.01654C6.35015 7.92731 6.15406 7.85451 6.02937 7.88518ZM6.0816 7.40571C6.46905 7.11706 6.28756 7.56754 6.0816 7.40571ZM6.57357 7.41352C6.60855 6.95845 7.69978 7.65443 6.7535 7.57734L6.57357 7.41352ZM7.24655 7.14294C7.49231 6.85578 7.31719 7.39836 7.24655 7.14294ZM7.41871 7.02765C7.82793 6.53595 9.73615 6.71384 8.3394 6.97971C7.96502 6.69785 7.67804 7.1459 7.41871 7.02765ZM9.90899 6.64378C11.1462 7.12107 9.84674 5.30069 9.90899 6.64378ZM10.6156 6.63991C10.8739 5.96298 11.6181 6.36828 10.7351 6.50388C10.7543 6.57592 10.7092 6.85335 10.6156 6.63991ZM4.91268 10.2298C5.68456 9.75714 4.09325 9.81973 4.91268 10.2298ZM5.48341 10.3884C5.75403 10.1006 4.89537 10.2717 5.48341 10.3884ZM3.80179 9.19494C4.24284 8.85613 3.27986 9.06612 3.80179 9.19494ZM26.5938 23.4536C26.6065 23.0605 26.2567 23.6307 26.5938 23.4536ZM24.2778 21.8731C24.3437 21.4206 23.9802 21.9126 24.2778 21.8731ZM27.2306 23.606C27.8473 23.6081 29.0991 23.4145 27.7573 23.4151C27.5468 23.448 26.5305 23.4409 27.2306 23.606ZM5.98543 10.111C6.48449 10.0767 6.76624 9.5605 5.88891 9.59018C4.52919 9.44941 7.08856 10.0558 5.71448 9.88238C5.52984 10.0046 5.9747 10.1448 5.98543 10.111ZM6.42496 10.3335C6.37285 10.013 6.27063 10.5037 6.42496 10.3335ZM6.94633 8.94321C7.1629 8.67459 6.64665 8.8714 6.94633 8.94321ZM5.28659 6.16887C6.17727 5.86586 7.39526 5.52538 7.81581 6.31806C7.38781 5.80293 7.64308 5.29582 8.04733 6.04898C8.61894 6.81101 8.90509 5.70238 8.53331 5.44678C8.95699 5.9732 9.43887 6.22196 8.81698 5.48005C9.49277 4.66715 7.46383 5.5865 7.00266 5.57724C6.78078 5.67684 4.71189 6.10487 5.28659 6.16887ZM5.80858 5.16917C6.31654 4.78578 7.56538 5.39722 6.76401 4.78815C6.68566 4.71894 5.009 5.25002 5.80858 5.16917ZM7.66045 5.24562C8.25495 5.26079 7.40402 4.44697 8.11244 4.81574C7.99609 4.43565 7.28764 4.3645 6.94129 4.21264C6.74539 4.56015 7.34003 5.2503 7.66045 5.24562ZM6.1333 3.56459C6.33897 3.28578 5.77285 3.70593 6.1333 3.56459ZM6.89019 3.74575C7.84822 3.61868 6.64598 3.33317 6.69714 3.73554L6.89019 3.74575ZM5.47692 2.6399C4.80236 1.75932 6.74553 2.78793 6.06018 1.86592C5.48334 1.40658 4.92902 2.38284 5.47692 2.6399ZM14.1339 7.30279C14.4433 6.75432 12.8565 6.56349 13.9254 7.10841C14.0238 7.14129 14.0016 7.34073 14.1339 7.30279Z" fill="black"/>
<path d="M28.7378 3.52001C28.6271 3.95622 28.5587 4.68864 28.5327 5.71728C28.5327 5.91911 28.4416 6.02002 28.2593 6.02001C28.077 6.02002 27.95 5.93213 27.8784 5.75634C27.6831 5.28109 27.4975 4.94906 27.3218 4.76025C27.1134 4.5389 26.8367 4.40544 26.4917 4.35986C26.1206 4.30127 25.1961 4.27198 23.7183 4.27196C23.3797 4.27198 23.1584 4.30778 23.0542 4.37939C22.9891 4.42497 22.9565 4.52263 22.9565 4.67235V9.09618C22.9565 9.24593 23.0509 9.31754 23.2397 9.31103C23.8192 9.30452 24.659 9.26546 25.7593 9.19384C25.9741 9.1678 26.119 9.09782 26.1938 8.98388C26.2687 8.86995 26.342 8.57536 26.4136 8.10009C26.4591 7.83968 26.6121 7.73877 26.8726 7.79735C27.0939 7.84294 27.1883 7.94385 27.1558 8.10009C26.9735 8.98551 26.9149 10.1379 26.98 11.5571C26.9865 11.7264 26.8791 11.8175 26.6577 11.8306C26.4754 11.8501 26.3615 11.7524 26.3159 11.5376C26.1466 10.7238 25.8325 10.2892 25.3735 10.2339C24.9145 10.1785 24.1675 10.1509 23.1323 10.1509C23.0151 10.1509 22.9565 10.1932 22.9565 10.2778V14.6724C22.9565 14.9979 23.077 15.2192 23.3179 15.3364C23.5067 15.4341 23.9136 15.522 24.5386 15.6001C24.8576 15.6326 24.9976 15.7726 24.9585 16.02C24.9194 16.2349 24.633 16.3195 24.0991 16.2739C22.5561 16.1502 21.2834 16.1567 20.2808 16.2934C20.0008 16.3325 19.8608 16.2186 19.8608 15.9517C19.8608 15.7824 20.0008 15.6847 20.2808 15.6587C20.9188 15.5871 21.2378 15.0272 21.2378 13.979V5.61962C21.2378 5.18994 21.1613 4.85954 21.0083 4.62841C20.8553 4.3973 20.5705 4.18734 20.1538 3.99853C19.8934 3.88135 19.7957 3.72185 19.8608 3.52001C19.8934 3.39633 19.9455 3.32797 20.0171 3.31493C20.0822 3.29541 20.2547 3.30844 20.5347 3.354C20.9448 3.41911 21.9116 3.45166 23.4351 3.45165C25.2319 3.45166 26.7847 3.4126 28.0933 3.33446C28.5294 3.30844 28.7475 3.34424 28.7476 3.44189C28.7475 3.46794 28.7443 3.49398 28.7378 3.52001Z" fill="black"/>
<path d="M35.0855 15.9321C35.0854 16.1925 34.939 16.3065 34.646 16.2739C33.7476 16.1893 32.6343 16.2023 31.3062 16.313C31.0392 16.339 30.8748 16.3325 30.813 16.2935C30.7511 16.2544 30.7202 16.147 30.7202 15.9712C30.7202 15.8149 30.8976 15.6831 31.2524 15.5757C31.6073 15.4683 31.7847 15.1476 31.7847 14.6138V5.77588C31.7847 5.24855 31.7082 4.86118 31.5552 4.61377C31.4022 4.36639 31.1336 4.17433 30.7495 4.0376C30.5477 3.966 30.4468 3.86508 30.4468 3.73486C30.4468 3.53956 30.5933 3.39308 30.8862 3.29541C31.3289 3.15219 31.7879 2.93084 32.2632 2.63135C32.6538 2.39699 32.9012 2.2798 33.0054 2.27979C33.2463 2.2798 33.3667 2.44581 33.3667 2.77783C33.3667 2.7518 33.3537 3.07732 33.3276 3.75439C33.3081 4.39894 33.3016 5.0337 33.3081 5.65869L33.3472 14.3794C33.3472 14.7765 33.4448 15.0646 33.6401 15.2437C33.8354 15.4227 34.1707 15.5415 34.646 15.6001C34.939 15.6326 35.0854 15.7433 35.0855 15.9321Z" fill="black"/>
<path d="M43.9917 15.2778C43.9917 15.4146 43.7427 15.6213 43.2446 15.8979C42.7466 16.1746 42.3478 16.313 42.0483 16.313C41.7944 16.313 41.5698 16.1893 41.3745 15.9419C41.1792 15.6945 41.0425 15.5708 40.9644 15.5708C40.9058 15.5708 40.5965 15.7043 40.0366 15.9712C39.4767 16.2381 38.9136 16.3716 38.3472 16.3716C37.8133 16.3716 37.3673 16.2153 37.0093 15.9028C36.6187 15.5578 36.4233 15.089 36.4233 14.4966C36.4233 13.3703 37.7124 12.563 40.2905 12.0747C40.7332 11.9901 40.9578 11.811 40.9644 11.5376L40.9839 10.9126C41.0229 9.8449 40.5509 9.31104 39.5679 9.31104C39.2879 9.31104 39.0226 9.56169 38.772 10.063C38.5213 10.5643 38.1616 10.8345 37.6929 10.8735C37.159 10.9256 36.8921 10.701 36.8921 10.1997C36.8921 9.88721 37.2892 9.52263 38.0835 9.10596C38.9168 8.66977 39.7176 8.45167 40.4858 8.45166C41.8074 8.45167 42.4617 9.07992 42.4487 10.3364L42.4097 14.3599C42.4032 14.783 42.5822 14.9946 42.9468 14.9946C43.0184 14.9946 43.1551 14.9784 43.3569 14.9458C43.5587 14.9133 43.6759 14.897 43.7085 14.897C43.8973 14.897 43.9917 15.0239 43.9917 15.2778ZM40.9839 13.0513C40.9904 12.8885 40.953 12.7811 40.8716 12.729C40.7902 12.6769 40.6616 12.6672 40.4858 12.6997C38.9168 12.9797 38.1323 13.4907 38.1323 14.2329C38.1323 14.9816 38.5392 15.356 39.353 15.356C39.6785 15.356 40.0138 15.2941 40.3589 15.1704C40.7625 15.0272 40.9643 14.8547 40.9644 14.6528L40.9839 13.0513Z" fill="black"/>
<path d="M51.2769 14.1157C51.2768 14.8058 51.0115 15.3543 50.481 15.7612C49.9503 16.1681 49.2261 16.3716 48.3081 16.3716C47.6961 16.3716 47.0841 16.3065 46.4722 16.1763C45.9448 16.0591 45.6388 15.9517 45.5542 15.854C45.5021 15.7629 45.4761 15.3169 45.4761 14.5161C45.4761 14.1711 45.5542 13.992 45.7104 13.979C45.8667 13.9595 46.0002 14.0441 46.1108 14.2329C46.5991 15.0858 47.3869 15.5122 48.4741 15.5122C49.3921 15.5122 49.8511 15.1932 49.8511 14.5552C49.8511 14.2752 49.7469 14.0409 49.5386 13.8521C49.3107 13.6372 48.868 13.3866 48.2104 13.1001C47.2599 12.6769 46.6252 12.3058 46.3062 11.9868C45.9611 11.6483 45.7886 11.1926 45.7886 10.6196C45.7886 9.91651 46.0588 9.36964 46.5991 8.979C47.1004 8.60141 47.771 8.41261 48.6108 8.4126C49.1382 8.41261 49.6199 8.45492 50.0562 8.53955C50.5249 8.62419 50.769 8.72836 50.7886 8.85205C50.8407 9.21664 50.9481 9.74398 51.1108 10.4341C51.1304 10.5187 51.0392 10.5871 50.8374 10.6392C50.6226 10.6847 50.4793 10.6489 50.4077 10.5317C49.8934 9.6919 49.2423 9.27198 48.4546 9.27197C47.5627 9.27198 47.1167 9.55844 47.1167 10.1313C47.1167 10.4504 47.2371 10.7043 47.478 10.8931C47.6929 11.0558 48.1974 11.3097 48.9917 11.6548C49.825 12.0129 50.3914 12.3351 50.6909 12.6216C51.0815 12.9927 51.2768 13.4907 51.2769 14.1157Z" fill="black"/>
<path d="M62.605 15.8735C62.605 16.1014 62.452 16.2218 62.146 16.2349C61.6903 16.2414 61.0946 16.2739 60.3589 16.3325C59.9943 16.4041 59.7339 16.3586 59.5776 16.1958C58.549 15.089 57.6766 13.9302 56.9604 12.7192C56.9019 12.6151 56.827 12.563 56.7358 12.563C56.6252 12.563 56.4331 12.6606 56.1597 12.856C55.8537 13.0252 55.7007 13.2661 55.7007 13.5786C55.7007 13.8 55.7072 14.119 55.7202 14.5356C55.7332 14.9523 55.8374 15.2258 56.0327 15.356C56.1694 15.4471 56.4852 15.5187 56.98 15.5708C57.286 15.6099 57.439 15.7238 57.439 15.9126C57.439 16.0623 57.4145 16.1551 57.3657 16.1909C57.3169 16.2267 57.1883 16.2349 56.98 16.2153C56.3289 16.1567 55.2287 16.1893 53.6792 16.313C53.2886 16.3455 53.077 16.2967 53.0444 16.1665C53.0314 16.1209 53.0249 16.0558 53.0249 15.9712C53.0249 15.7694 53.2235 15.6164 53.6206 15.5122C53.9787 15.4211 54.1577 15.0011 54.1577 14.2524V5.71729C54.1577 5.18344 54.1056 4.81235 54.0015 4.604C53.8582 4.33709 53.5588 4.12876 53.103 3.979C52.8882 3.9074 52.7808 3.80649 52.7808 3.67627C52.7808 3.48748 52.9338 3.341 53.2397 3.23682C53.728 3.07407 54.1935 2.84946 54.6362 2.56299C54.9943 2.32863 55.2157 2.21144 55.3003 2.21143C55.5672 2.21144 55.7007 2.38071 55.7007 2.71924C55.7007 2.67368 55.6974 2.99594 55.6909 3.68604C55.6844 4.16131 55.6812 4.79933 55.6812 5.6001L55.7007 11.7134C55.7007 11.8827 55.7463 11.9673 55.8374 11.9673C55.9351 11.9673 56.0848 11.8827 56.2866 11.7134C56.827 11.2902 57.491 10.7368 58.2788 10.0532C58.4351 9.89047 58.5132 9.76026 58.5132 9.6626C58.5132 9.48682 58.2495 9.36313 57.7222 9.2915C57.4943 9.26547 57.3869 9.13852 57.3999 8.91064C57.4194 8.68279 57.5334 8.58513 57.7417 8.61768C58.2104 8.68279 58.894 8.7186 59.7925 8.7251C60.4175 8.73162 61.0392 8.73487 61.6577 8.73486C61.8595 8.74138 61.9604 8.86182 61.9604 9.09619C61.9604 9.31755 61.8009 9.438 61.4819 9.45752C60.9806 9.47706 60.5086 9.59099 60.0659 9.79932C59.4474 10.0793 58.7866 10.5708 58.0835 11.2739C58.0314 11.313 58.0054 11.3618 58.0054 11.4204C58.0054 11.5116 58.116 11.7297 58.3374 12.0747C59.1512 13.3117 59.9194 14.2459 60.6421 14.8774C61.1043 15.2746 61.5373 15.4731 61.9409 15.4731C62.2404 15.4731 62.4259 15.4943 62.4976 15.5366C62.5692 15.5789 62.605 15.6912 62.605 15.8735Z" fill="black"/>
<path d="M36.4222 19.2772C36.4222 19.3 36.3785 19.3234 36.2912 19.3475C36.2342 19.3627 36.1861 19.4146 36.1469 19.5032C35.919 20.0095 35.7152 20.4178 35.5354 20.7279C35.5316 20.7355 35.5221 20.7387 35.5069 20.7374C35.493 20.7362 35.4835 20.7317 35.4785 20.7241C35.4481 20.6786 35.3702 20.5197 35.2449 20.2475C35.1297 19.9969 35.0677 19.8716 35.0588 19.8716C35.0449 19.8716 34.9772 19.9924 34.8556 20.2342C34.7176 20.5039 34.636 20.6577 34.6107 20.6957C34.6069 20.7045 34.598 20.7083 34.5841 20.7071C34.5702 20.7071 34.5594 20.702 34.5518 20.6919C34.4594 20.5475 34.2467 20.1526 33.9138 19.507C33.8758 19.431 33.8334 19.3829 33.7866 19.3627C33.7055 19.3272 33.665 19.3013 33.665 19.2848C33.665 19.2354 33.6923 19.2133 33.7467 19.2183C33.991 19.2437 34.205 19.2386 34.3885 19.2031C34.4303 19.1956 34.4512 19.2095 34.4512 19.2449C34.4512 19.2943 34.4227 19.3259 34.3657 19.3399C34.291 19.3576 34.2537 19.3854 34.2537 19.4234C34.2537 19.4475 34.2625 19.4829 34.2803 19.5298C34.3258 19.6475 34.3942 19.7969 34.4854 19.9779C34.5765 20.1589 34.6297 20.2494 34.6449 20.2494C34.655 20.2494 34.7088 20.1551 34.8063 19.9665C34.9037 19.7779 34.9525 19.6734 34.9525 19.6532C34.9525 19.6038 34.936 19.5506 34.9031 19.4937C34.8639 19.4101 34.8183 19.3601 34.7664 19.3437C34.6828 19.3145 34.6411 19.2861 34.6411 19.2582C34.6411 19.2076 34.6695 19.1867 34.7265 19.1956C34.9215 19.2221 35.1278 19.2171 35.3455 19.1804C35.3873 19.1728 35.4082 19.1854 35.4082 19.2183C35.4082 19.2664 35.3772 19.2962 35.3152 19.3076C35.2417 19.3215 35.205 19.3589 35.205 19.4196C35.205 19.4487 35.2132 19.4829 35.2297 19.5222C35.4247 19.9994 35.5373 20.238 35.5677 20.238C35.5791 20.238 35.6297 20.145 35.7196 19.9589C35.8158 19.7602 35.8829 19.6 35.9209 19.4785C35.9234 19.4722 35.9247 19.4652 35.9247 19.4576C35.9247 19.4032 35.8823 19.3608 35.7975 19.3304C35.7316 19.3089 35.6987 19.2848 35.6987 19.2582C35.6987 19.2139 35.7196 19.1968 35.7614 19.2069C35.8184 19.2196 35.9209 19.2291 36.069 19.2354C36.2083 19.2405 36.3 19.2399 36.3443 19.2335C36.3962 19.2272 36.4222 19.2417 36.4222 19.2772Z" fill="black"/>
<path d="M38.1045 20.3538C38.1045 20.4083 38.0311 20.476 37.8843 20.557C37.7171 20.6469 37.5456 20.6918 37.3697 20.6918C37.1785 20.6918 37.0177 20.6292 36.8873 20.5038C36.7481 20.3709 36.6785 20.1937 36.6785 19.9722C36.6785 19.7215 36.7563 19.5202 36.912 19.3683C37.0576 19.2265 37.2361 19.1556 37.4475 19.1556C37.5728 19.1556 37.6899 19.1955 37.7988 19.2753C37.8963 19.3462 37.9608 19.4272 37.9925 19.5183C38.0039 19.55 38.021 19.5677 38.0438 19.5715C38.0767 19.5778 38.0931 19.6 38.0931 19.638C38.0931 19.6899 38.0311 19.7342 37.907 19.7709L37.0317 20.031C37.0886 20.3323 37.2431 20.483 37.495 20.483C37.6406 20.483 37.8064 20.4298 37.9925 20.3234C38.0203 20.307 38.0476 20.2988 38.0741 20.2988C38.0944 20.2988 38.1045 20.3171 38.1045 20.3538ZM37.6545 19.5924C37.6545 19.5228 37.6263 19.4617 37.57 19.4091C37.5137 19.3566 37.4443 19.3303 37.3621 19.3303C37.1291 19.3303 37.0127 19.4981 37.0127 19.8335V19.8791L37.5292 19.7234C37.6127 19.6994 37.6545 19.6557 37.6545 19.5924Z" fill="black"/>
<path d="M40.0243 19.8202C40.0243 20.0709 39.937 20.281 39.7623 20.4507C39.5952 20.614 39.3964 20.6956 39.166 20.6956C39.0356 20.6956 38.8995 20.6741 38.7578 20.631C38.621 20.5893 38.552 20.5513 38.5508 20.5171C38.5495 20.488 38.5501 20.3861 38.5527 20.2114C38.5565 19.9975 38.5584 19.8418 38.5584 19.7443C38.5584 19.5974 38.5571 19.3844 38.5546 19.1053C38.5521 18.8262 38.5508 18.641 38.5508 18.5499C38.5508 18.4587 38.5369 18.3961 38.509 18.3619C38.4837 18.3315 38.4286 18.3075 38.3438 18.2897C38.3109 18.2784 38.2944 18.2575 38.2944 18.2271C38.2944 18.2005 38.3191 18.1783 38.3685 18.1606C38.4394 18.1353 38.5274 18.0929 38.6324 18.0334C38.716 17.9866 38.7679 17.9631 38.7881 17.9631C38.8274 17.9631 38.847 17.9954 38.847 18.06C38.847 18.065 38.8451 18.1309 38.8413 18.2575C38.8388 18.3765 38.8381 18.4974 38.8394 18.6201L38.8432 19.2772C38.8432 19.3392 38.8647 19.3569 38.9078 19.3303C39.0597 19.243 39.2179 19.1993 39.3825 19.1993C39.5724 19.1993 39.7268 19.2566 39.8458 19.3711C39.9648 19.4857 40.0243 19.6354 40.0243 19.8202ZM39.7205 19.9892C39.7205 19.8158 39.6724 19.6734 39.5762 19.562C39.485 19.4569 39.3743 19.4044 39.2439 19.4044C39.154 19.4044 39.0654 19.4278 38.978 19.4746C38.8907 19.5215 38.847 19.5708 38.847 19.6227V20.1316C38.847 20.376 38.9818 20.4981 39.2515 20.4981C39.392 20.4981 39.5053 20.4529 39.5914 20.3624C39.6774 20.2718 39.7205 20.1475 39.7205 19.9892Z" fill="black"/>
<path d="M43.0967 20.4867C43.1018 20.4981 43.1043 20.5064 43.1043 20.5114C43.1043 20.538 43.0398 20.5817 42.9106 20.6424C42.7613 20.7121 42.6733 20.7469 42.6467 20.7469C42.6239 20.7469 42.5976 20.7086 42.5679 20.632C42.5381 20.5554 42.5176 20.5171 42.5062 20.5171C42.5074 20.5171 42.4356 20.5503 42.2907 20.6168C42.1457 20.6833 42.0359 20.7165 41.9612 20.7165C41.7941 20.7165 41.6492 20.6564 41.5264 20.5361C41.3783 20.3931 41.3042 20.1924 41.3042 19.9342C41.3042 19.7177 41.3915 19.531 41.5662 19.374C41.7207 19.236 41.8783 19.167 42.0391 19.167C42.153 19.167 42.2891 19.1816 42.4473 19.2107C42.4967 19.2196 42.5214 19.205 42.5214 19.167V18.5176C42.5214 18.4442 42.5037 18.3923 42.4682 18.3619C42.4454 18.3416 42.3916 18.3176 42.3068 18.2897C42.2663 18.2746 42.246 18.2499 42.246 18.2157C42.246 18.184 42.2733 18.1606 42.3277 18.1454C42.4024 18.1226 42.4916 18.0847 42.5954 18.0315C42.6815 17.9859 42.7347 17.9631 42.7549 17.9631C42.8018 17.9631 42.8252 17.9954 42.8252 18.06C42.8252 18.0587 42.8233 18.1217 42.8195 18.2489C42.8157 18.3761 42.8138 18.4999 42.8138 18.6201V20.3462C42.8138 20.4184 42.8461 20.4545 42.9106 20.4545C42.9347 20.4545 42.967 20.4507 43.0075 20.4431C43.0518 20.4355 43.0815 20.45 43.0967 20.4867ZM42.51 20.2987V19.619C42.51 19.5633 42.4606 19.5057 42.3619 19.4462C42.2568 19.3829 42.1429 19.3512 42.0201 19.3512C41.7555 19.3512 41.6232 19.5145 41.6232 19.8411C41.6232 20.0158 41.6757 20.1652 41.7808 20.2893C41.8859 20.4133 42.0093 20.4753 42.1511 20.4753C42.2157 20.4753 42.2916 20.4538 42.379 20.4108C42.4663 20.3677 42.51 20.3304 42.51 20.2987Z" fill="black"/>
<path d="M44.7429 20.3538C44.7429 20.4083 44.6695 20.476 44.5227 20.557C44.3556 20.6469 44.184 20.6918 44.0081 20.6918C43.8169 20.6918 43.6562 20.6292 43.5258 20.5038C43.3865 20.3709 43.3169 20.1937 43.3169 19.9722C43.3169 19.7215 43.3947 19.5202 43.5505 19.3683C43.696 19.2265 43.8745 19.1556 44.0859 19.1556C44.2113 19.1556 44.3284 19.1955 44.4372 19.2753C44.5347 19.3462 44.5993 19.4272 44.6309 19.5183C44.6423 19.55 44.6594 19.5677 44.6822 19.5715C44.7151 19.5778 44.7316 19.6 44.7316 19.638C44.7316 19.6899 44.6695 19.7342 44.5455 19.7709L43.6701 20.031C43.727 20.3323 43.8815 20.483 44.1334 20.483C44.279 20.483 44.4448 20.4298 44.6309 20.3234C44.6588 20.307 44.686 20.2988 44.7126 20.2988C44.7328 20.2988 44.7429 20.3171 44.7429 20.3538ZM44.2929 19.5924C44.2929 19.5228 44.2647 19.4617 44.2084 19.4091C44.1521 19.3566 44.0828 19.3303 44.0005 19.3303C43.7676 19.3303 43.6511 19.4981 43.6511 19.8335V19.8791L44.1676 19.7234C44.2511 19.6994 44.2929 19.6557 44.2929 19.5924Z" fill="black"/>
<path d="M46.826 19.2733C46.826 19.2974 46.7861 19.3221 46.7064 19.3474C46.6545 19.3626 46.6102 19.4145 46.5735 19.5031C46.5114 19.6525 46.4032 19.8715 46.2488 20.1601C46.1184 20.4044 46.0177 20.5829 45.9468 20.6956C45.943 20.7044 45.9348 20.7082 45.9221 20.707C45.9095 20.7057 45.9 20.7006 45.8937 20.6918C45.6253 20.3057 45.3955 19.9107 45.2044 19.5069C45.1639 19.4208 45.124 19.3727 45.0847 19.3626C45.0113 19.3334 44.9746 19.3075 44.9746 19.2847C44.9746 19.2341 44.9993 19.2119 45.0487 19.2182C45.1259 19.2284 45.2405 19.2309 45.3924 19.2258C45.5392 19.2221 45.6424 19.2145 45.7019 19.2031C45.7386 19.1955 45.7569 19.2094 45.7569 19.2448C45.7569 19.2891 45.731 19.3176 45.6791 19.3303C45.5803 19.3569 45.531 19.3911 45.531 19.4328C45.531 19.4518 45.5373 19.479 45.55 19.5145C45.593 19.6208 45.6702 19.7743 45.7816 19.9749C45.893 20.1756 45.9563 20.2759 45.9715 20.2759C45.9829 20.2759 46.0367 20.1797 46.1329 19.9873C46.2342 19.7835 46.307 19.6189 46.3513 19.4936C46.3576 19.4797 46.3608 19.4657 46.3608 19.4518C46.3608 19.4024 46.3304 19.3619 46.2696 19.3303C46.2101 19.3062 46.1804 19.2834 46.1804 19.2619C46.1804 19.2176 46.2 19.1993 46.2393 19.2069C46.2899 19.2157 46.3791 19.2233 46.507 19.2296C46.6349 19.236 46.7178 19.2372 46.7558 19.2334C46.8026 19.2246 46.826 19.2379 46.826 19.2733Z" fill="black"/>
<path d="M48.5105 20.3538C48.5105 20.4083 48.4371 20.476 48.2903 20.557C48.1232 20.6469 47.9516 20.6918 47.7757 20.6918C47.5845 20.6918 47.4237 20.6292 47.2933 20.5038C47.1541 20.3709 47.0845 20.1937 47.0845 19.9722C47.0845 19.7215 47.1623 19.5202 47.318 19.3683C47.4636 19.2265 47.6421 19.1556 47.8535 19.1556C47.9788 19.1556 48.0959 19.1955 48.2048 19.2753C48.3023 19.3462 48.3668 19.4272 48.3985 19.5183C48.4099 19.55 48.427 19.5677 48.4498 19.5715C48.4827 19.5778 48.4991 19.6 48.4991 19.638C48.4991 19.6899 48.4371 19.7342 48.313 19.7709L47.4377 20.031C47.4946 20.3323 47.6491 20.483 47.901 20.483C48.0466 20.483 48.2124 20.4298 48.3985 20.3234C48.4263 20.307 48.4536 20.2988 48.4801 20.2988C48.5004 20.2988 48.5105 20.3171 48.5105 20.3538ZM48.0605 19.5924C48.0605 19.5228 48.0323 19.4617 47.976 19.4091C47.9197 19.3566 47.8504 19.3303 47.7681 19.3303C47.5351 19.3303 47.4187 19.4981 47.4187 19.8335V19.8791L47.9352 19.7234C48.0187 19.6994 48.0605 19.6557 48.0605 19.5924Z" fill="black"/>
<path d="M49.6839 20.6178C49.6839 20.6684 49.6555 20.6906 49.5985 20.6842C49.4238 20.6678 49.2073 20.6703 48.9491 20.6918C48.8972 20.6969 48.8652 20.6956 48.8532 20.688C48.8412 20.6804 48.8352 20.6595 48.8352 20.6254C48.8352 20.595 48.8696 20.5693 48.9386 20.5484C49.0076 20.5276 49.0421 20.4652 49.0421 20.3614V18.6429C49.0421 18.5404 49.0273 18.4651 48.9975 18.417C48.9678 18.3689 48.9155 18.3315 48.8408 18.3049C48.8016 18.291 48.782 18.2714 48.782 18.2461C48.782 18.2081 48.8105 18.1796 48.8674 18.1606C48.9535 18.1328 49.0428 18.0897 49.1352 18.0315C49.2111 17.9859 49.2592 17.9631 49.2795 17.9631C49.3263 17.9631 49.3497 17.9954 49.3497 18.06C49.3497 18.0549 49.3472 18.1182 49.3421 18.2499C49.3384 18.3752 49.3371 18.4986 49.3384 18.6201L49.346 20.3158C49.346 20.3931 49.3649 20.4491 49.4029 20.4839C49.4409 20.5187 49.5061 20.5418 49.5985 20.5532C49.6555 20.5595 49.6839 20.5811 49.6839 20.6178Z" fill="black"/>
<path d="M51.524 19.9076C51.524 20.1278 51.4424 20.3142 51.2791 20.4668C51.1157 20.6193 50.9132 20.6956 50.6714 20.6956C50.4296 20.6956 50.2385 20.6285 50.098 20.4943C49.9625 20.3626 49.8948 20.1886 49.8948 19.9721C49.8948 19.748 49.9802 19.5594 50.1511 19.4063C50.317 19.2581 50.5151 19.1841 50.7455 19.1841C50.9923 19.1841 51.1847 19.2505 51.3227 19.3835C51.4569 19.5126 51.524 19.6873 51.524 19.9076ZM51.1898 20.0234C51.1898 19.8246 51.1417 19.6632 51.0455 19.5392C50.9518 19.4189 50.8328 19.3588 50.6885 19.3588C50.5543 19.3588 50.4448 19.4059 50.36 19.5002C50.2752 19.5946 50.2328 19.7094 50.2328 19.8449C50.2328 20.0626 50.2821 20.2323 50.3809 20.3538C50.472 20.4652 50.591 20.5209 50.7379 20.5209C50.8771 20.5209 50.9873 20.4747 51.0683 20.3823C51.1493 20.2899 51.1898 20.1702 51.1898 20.0234Z" fill="black"/>
<path d="M53.5082 19.8564C53.5082 20.0931 53.4288 20.2941 53.2699 20.4593C53.111 20.6245 52.9259 20.7071 52.7145 20.7071C52.5866 20.7071 52.4632 20.6843 52.3442 20.6387C52.3316 20.6336 52.3252 20.6646 52.3252 20.7317V21.3033C52.3252 21.3957 52.4005 21.4552 52.5512 21.4818C52.6208 21.4945 52.6648 21.5062 52.6832 21.5169C52.7015 21.5277 52.7107 21.5457 52.7107 21.571C52.7107 21.6141 52.6822 21.6337 52.6252 21.6299C52.3594 21.6122 52.1258 21.6185 51.9246 21.6489C51.8828 21.6552 51.8568 21.6552 51.8467 21.6489C51.8366 21.6426 51.8315 21.6255 51.8315 21.5976C51.8315 21.5761 51.8676 21.5502 51.9398 21.5198C52.0018 21.4945 52.0328 21.4337 52.0328 21.3375V19.6627C52.0328 19.5272 51.9955 19.4424 51.9208 19.4082C51.8321 19.369 51.7878 19.3367 51.7878 19.3114C51.7878 19.2835 51.8138 19.2627 51.8657 19.2487C51.9328 19.2323 52.0018 19.2032 52.0727 19.1614C52.1322 19.1272 52.1682 19.1101 52.1809 19.1101C52.2189 19.1101 52.2499 19.1449 52.274 19.2145C52.3094 19.3158 52.3328 19.3665 52.3442 19.3665C52.3467 19.3665 52.4012 19.3367 52.5075 19.2772C52.624 19.2126 52.7379 19.1804 52.8493 19.1804C53.0303 19.1804 53.1797 19.2316 53.2974 19.3342C53.438 19.4544 53.5082 19.6285 53.5082 19.8564ZM53.1854 20.0083C53.1854 19.8019 53.1341 19.6412 53.0316 19.526C52.9481 19.4298 52.8499 19.3816 52.7373 19.3816C52.6499 19.3816 52.5664 19.412 52.4866 19.4728C52.3816 19.5513 52.329 19.6608 52.329 19.8013V20.3387C52.329 20.3729 52.3771 20.4089 52.4733 20.4469C52.5771 20.4887 52.6898 20.5096 52.8113 20.5096C53.0607 20.5096 53.1854 20.3425 53.1854 20.0083Z" fill="black"/>
<path d="M56.9394 20.6216C56.9394 20.6633 56.9198 20.683 56.8806 20.6804C56.6223 20.6614 56.3818 20.6614 56.159 20.6804C56.1096 20.6842 56.0849 20.6621 56.0849 20.614C56.0849 20.576 56.1185 20.5557 56.1856 20.5532C56.2704 20.5481 56.3128 20.4791 56.3128 20.3462V19.8411C56.3128 19.5576 56.1976 19.4158 55.9672 19.4158C55.8457 19.4158 55.7343 19.4379 55.633 19.4822C55.5406 19.5215 55.4938 19.5607 55.4925 19.6L55.4849 20.3538C55.4849 20.4323 55.4944 20.4842 55.5134 20.5095C55.5273 20.5272 55.5583 20.5399 55.6064 20.5475C55.7178 20.5665 55.7735 20.5899 55.7735 20.6178C55.7735 20.6418 55.7704 20.6583 55.764 20.6671C55.7564 20.6798 55.7336 20.6855 55.6957 20.6842C55.5513 20.6792 55.3412 20.6817 55.0652 20.6918C55.026 20.6931 55.0007 20.6899 54.9893 20.6823C54.9779 20.6747 54.9722 20.657 54.9722 20.6292C54.9722 20.5962 55.0083 20.576 55.0804 20.5684C55.1589 20.5595 55.1982 20.488 55.1982 20.3538V19.8373C55.1982 19.6981 55.1665 19.5905 55.1032 19.5145C55.0475 19.4462 54.9766 19.412 54.8905 19.412C54.764 19.412 54.65 19.4376 54.5487 19.4889C54.4475 19.5401 54.3968 19.5949 54.3968 19.6531V20.3462C54.3968 20.4247 54.4171 20.4791 54.4576 20.5095C54.4943 20.5374 54.5608 20.5545 54.657 20.5608C54.7089 20.5633 54.7348 20.581 54.7348 20.614C54.7348 20.6507 54.7139 20.669 54.6722 20.669C54.3557 20.669 54.1266 20.6779 53.9848 20.6956C53.9367 20.7019 53.9057 20.7019 53.8917 20.6956C53.8803 20.6893 53.8746 20.6741 53.8746 20.65C53.8746 20.6184 53.9215 20.5912 54.0152 20.5684C54.0721 20.5532 54.1006 20.4791 54.1006 20.3462V19.7633C54.1006 19.6152 54.0607 19.5297 53.981 19.5069C53.9139 19.4879 53.8731 19.474 53.8585 19.4651C53.8439 19.4563 53.8367 19.4417 53.8367 19.4215C53.8367 19.3987 53.9025 19.3506 54.0342 19.2772C54.1734 19.1987 54.2589 19.1594 54.2905 19.1594C54.3171 19.1594 54.3396 19.1977 54.3579 19.2743C54.3763 19.3509 54.3905 19.3892 54.4006 19.3892C54.4146 19.3892 54.4532 19.3696 54.5165 19.3303C54.595 19.281 54.6658 19.2442 54.7291 19.2202C54.8329 19.1797 54.9399 19.1594 55.05 19.1594C55.1387 19.1594 55.2159 19.1784 55.2817 19.2164C55.3273 19.2417 55.3684 19.2765 55.4051 19.3208C55.4355 19.3588 55.4507 19.3778 55.4507 19.3778C55.4507 19.3778 55.4836 19.3588 55.5495 19.3208C55.6267 19.2765 55.702 19.2417 55.7754 19.2164C55.883 19.1784 55.9875 19.1594 56.0887 19.1594C56.4356 19.1594 56.609 19.3499 56.609 19.731V20.3462C56.609 20.4184 56.6261 20.4696 56.6603 20.5C56.6907 20.5253 56.7502 20.5469 56.8388 20.5646C56.9059 20.5772 56.9394 20.5962 56.9394 20.6216Z" fill="black"/>
<path d="M58.544 20.3538C58.544 20.4083 58.4705 20.476 58.3237 20.557C58.1566 20.6469 57.9851 20.6918 57.8091 20.6918C57.618 20.6918 57.4572 20.6292 57.3268 20.5038C57.1875 20.3709 57.1179 20.1937 57.1179 19.9722C57.1179 19.7215 57.1958 19.5202 57.3515 19.3683C57.4971 19.2265 57.6756 19.1556 57.887 19.1556C58.0123 19.1556 58.1294 19.1955 58.2383 19.2753C58.3357 19.3462 58.4003 19.4272 58.4319 19.5183C58.4433 19.55 58.4604 19.5677 58.4832 19.5715C58.5161 19.5778 58.5326 19.6 58.5326 19.638C58.5326 19.6899 58.4705 19.7342 58.3465 19.7709L57.4711 20.031C57.5281 20.3323 57.6825 20.483 57.9344 20.483C58.08 20.483 58.2458 20.4298 58.4319 20.3234C58.4598 20.307 58.487 20.2988 58.5136 20.2988C58.5338 20.2988 58.544 20.3171 58.544 20.3538ZM58.0939 19.5924C58.0939 19.5228 58.0658 19.4617 58.0094 19.4091C57.9531 19.3566 57.8838 19.3303 57.8015 19.3303C57.5686 19.3303 57.4521 19.4981 57.4521 19.8335V19.8791L57.9686 19.7234C58.0522 19.6994 58.0939 19.6557 58.0939 19.5924Z" fill="black"/>
<path d="M60.8227 20.6386C60.8227 20.6779 60.7942 20.6956 60.7373 20.6918C60.4651 20.6779 60.2588 20.6754 60.1182 20.6842C60.0461 20.6893 60.0068 20.6804 60.0005 20.6576C59.998 20.65 59.9967 20.6393 59.9967 20.6254C59.9967 20.6 60.0334 20.5772 60.1069 20.557C60.1739 20.538 60.2075 20.4728 60.2075 20.3614V19.8563C60.2075 19.5664 60.0815 19.4215 59.8296 19.4215C59.717 19.4215 59.6125 19.4481 59.5163 19.5012C59.4252 19.5531 59.3796 19.6069 59.3796 19.6626V20.3576C59.3796 20.4766 59.4574 20.5431 59.6131 20.557C59.6726 20.5621 59.7024 20.581 59.7024 20.614C59.7024 20.6456 59.6942 20.6646 59.6777 20.6709C59.6701 20.6735 59.6486 20.6741 59.6131 20.6728C59.4144 20.6652 59.2093 20.6754 58.9979 20.7032C58.9523 20.7095 58.9239 20.7114 58.9125 20.7089C58.8871 20.7038 58.8745 20.6842 58.8745 20.65C58.8745 20.6197 58.9106 20.5937 58.9827 20.5722C59.0498 20.5519 59.0834 20.4677 59.0834 20.3196V19.7443C59.0834 19.6468 59.0707 19.5848 59.0454 19.5582C59.0277 19.5392 58.9688 19.5126 58.8688 19.4784C58.8435 19.4696 58.8308 19.4519 58.8308 19.4253C58.8308 19.3999 58.8568 19.3778 58.9087 19.3588C58.9796 19.3322 59.0574 19.2898 59.1422 19.2316C59.2131 19.1835 59.2587 19.1594 59.2789 19.1594C59.3131 19.1594 59.3359 19.1984 59.3473 19.2762C59.3587 19.3541 59.3745 19.393 59.3948 19.393C59.3847 19.393 59.4492 19.356 59.5885 19.2819C59.7277 19.2078 59.8651 19.1708 60.0005 19.1708C60.3284 19.1708 60.4936 19.3575 60.4961 19.731L60.4999 20.3424C60.4999 20.4209 60.5202 20.4772 60.5607 20.5114C60.5911 20.5367 60.6499 20.5583 60.7373 20.576C60.7942 20.5874 60.8227 20.6083 60.8227 20.6386Z" fill="black"/>
<path d="M62.0417 20.4943C62.0417 20.5551 61.986 20.607 61.8746 20.65C61.7759 20.688 61.6759 20.707 61.5746 20.707C61.2999 20.707 61.1625 20.5608 61.1625 20.2683V19.5809C61.1625 19.4936 61.1556 19.4401 61.1417 19.4205C61.1277 19.4009 61.0815 19.3816 61.003 19.3626C60.9828 19.3575 60.9727 19.3379 60.9727 19.3037C60.9727 19.267 60.9803 19.2448 60.9954 19.2372C61.1322 19.1702 61.2512 19.0499 61.3524 18.8765C61.3664 18.8524 61.3936 18.8448 61.4341 18.8537C61.4619 18.8625 61.4765 18.879 61.4778 18.903L61.4854 19.1404C61.4854 19.1581 61.4885 19.1708 61.4949 19.1784C61.5037 19.1898 61.524 19.1955 61.5556 19.1955H61.9791C62.0031 19.1955 62.0031 19.2252 61.9791 19.2847C61.9499 19.3569 61.9069 19.393 61.8499 19.393H61.5632C61.5138 19.393 61.4835 19.4012 61.4721 19.4176C61.4632 19.429 61.4588 19.4601 61.4588 19.5107V20.1316C61.4588 20.2886 61.4727 20.388 61.5006 20.4297C61.5373 20.4829 61.6227 20.5095 61.7569 20.5095C61.8012 20.5095 61.855 20.5022 61.9183 20.4877C61.9816 20.4731 62.0151 20.4658 62.0189 20.4658C62.0341 20.4658 62.0417 20.4753 62.0417 20.4943Z" fill="black"/>
<path d="M62.9039 20.5798C62.9039 20.9089 62.7652 21.1564 62.488 21.3223C62.4627 21.3374 62.4443 21.345 62.4329 21.345C62.4152 21.345 62.3988 21.3248 62.3836 21.2843C62.3785 21.2703 62.376 21.259 62.376 21.2501C62.376 21.2286 62.4121 21.1931 62.4842 21.1438C62.6083 21.0577 62.6703 20.9602 62.6703 20.8513C62.6703 20.7956 62.6342 20.745 62.5621 20.6994C62.4608 20.6361 62.4102 20.5583 62.4102 20.4659C62.4102 20.4038 62.431 20.3522 62.4728 20.3111C62.5146 20.27 62.5703 20.2494 62.6399 20.2494C62.7235 20.2494 62.7883 20.2798 62.8346 20.3405C62.8808 20.4013 62.9039 20.4811 62.9039 20.5798Z" fill="black"/>
<path d="M35.5582 23.4076C35.5582 23.6278 35.4765 23.8142 35.3132 23.9668C35.1499 24.1193 34.9474 24.1956 34.7056 24.1956C34.4638 24.1956 34.2726 24.1285 34.1321 23.9943C33.9967 23.8626 33.929 23.6886 33.929 23.4721C33.929 23.248 34.0144 23.0594 34.1853 22.9063C34.3511 22.7581 34.5493 22.6841 34.7796 22.6841C35.0265 22.6841 35.2189 22.7505 35.3569 22.8835C35.4911 23.0126 35.5582 23.1873 35.5582 23.4076ZM35.224 23.5234C35.224 23.3246 35.1759 23.1632 35.0797 23.0392C34.986 22.9189 34.867 22.8588 34.7227 22.8588C34.5885 22.8588 34.479 22.9059 34.3942 23.0002C34.3094 23.0946 34.267 23.2094 34.267 23.3449C34.267 23.5626 34.3163 23.7323 34.4151 23.8538C34.5062 23.9652 34.6252 24.0209 34.7721 24.0209C34.9113 24.0209 35.0214 23.9747 35.1025 23.8823C35.1835 23.7899 35.224 23.6702 35.224 23.5234Z" fill="black"/>
<path d="M37.8691 24.1386C37.8691 24.1779 37.8406 24.1956 37.7837 24.1918C37.5115 24.1779 37.3052 24.1754 37.1646 24.1842C37.0925 24.1893 37.0532 24.1804 37.0469 24.1576C37.0444 24.15 37.0431 24.1393 37.0431 24.1254C37.0431 24.1 37.0798 24.0772 37.1532 24.057C37.2203 24.038 37.2539 23.9728 37.2539 23.8614V23.3563C37.2539 23.0664 37.1279 22.9215 36.876 22.9215C36.7633 22.9215 36.6589 22.9481 36.5627 23.0012C36.4715 23.0531 36.426 23.1069 36.426 23.1626V23.8576C36.426 23.9766 36.5038 24.0431 36.6595 24.057C36.719 24.0621 36.7488 24.081 36.7488 24.114C36.7488 24.1456 36.7405 24.1646 36.7241 24.1709C36.7165 24.1735 36.695 24.1741 36.6595 24.1728C36.4608 24.1652 36.2557 24.1754 36.0443 24.2032C35.9987 24.2095 35.9702 24.2114 35.9588 24.2089C35.9335 24.2038 35.9209 24.1842 35.9209 24.15C35.9209 24.1197 35.957 24.0937 36.0291 24.0722C36.0962 24.0519 36.1297 23.9677 36.1297 23.8196V23.2443C36.1297 23.1468 36.1171 23.0848 36.0918 23.0582C36.074 23.0392 36.0152 23.0126 35.9152 22.9784C35.8899 22.9696 35.8772 22.9519 35.8772 22.9253C35.8772 22.8999 35.9031 22.8778 35.9551 22.8588C36.0259 22.8322 36.1038 22.7898 36.1886 22.7316C36.2595 22.6835 36.3051 22.6594 36.3253 22.6594C36.3595 22.6594 36.3823 22.6984 36.3937 22.7762C36.4051 22.8541 36.4209 22.893 36.4412 22.893C36.431 22.893 36.4956 22.856 36.6348 22.7819C36.7741 22.7078 36.9114 22.6708 37.0469 22.6708C37.3748 22.6708 37.54 22.8575 37.5425 23.231L37.5463 23.8424C37.5463 23.9209 37.5666 23.9772 37.6071 24.0114C37.6374 24.0367 37.6963 24.0583 37.7837 24.076C37.8406 24.0874 37.8691 24.1083 37.8691 24.1386Z" fill="black"/>
<path d="M39.4566 23.8538C39.4566 23.9083 39.3831 23.976 39.2363 24.057C39.0692 24.1469 38.8977 24.1918 38.7217 24.1918C38.5306 24.1918 38.3698 24.1292 38.2394 24.0038C38.1001 23.8709 38.0305 23.6937 38.0305 23.4722C38.0305 23.2215 38.1084 23.0202 38.2641 22.8683C38.4097 22.7265 38.5882 22.6556 38.7996 22.6556C38.9249 22.6556 39.042 22.6955 39.1509 22.7753C39.2483 22.8462 39.3129 22.9272 39.3445 23.0183C39.3559 23.05 39.373 23.0677 39.3958 23.0715C39.4287 23.0778 39.4452 23.1 39.4452 23.138C39.4452 23.1899 39.3831 23.2342 39.2591 23.2709L38.3837 23.531C38.4407 23.8323 38.5951 23.983 38.847 23.983C38.9926 23.983 39.1584 23.9298 39.3445 23.8234C39.3724 23.807 39.3996 23.7988 39.4262 23.7988C39.4464 23.7988 39.4566 23.8171 39.4566 23.8538ZM39.0065 23.0924C39.0065 23.0228 38.9784 22.9617 38.922 22.9091C38.8657 22.8566 38.7964 22.8303 38.7141 22.8303C38.4812 22.8303 38.3647 22.9981 38.3647 23.3335V23.3791L38.8812 23.2234C38.9648 23.1994 39.0065 23.1557 39.0065 23.0924Z" fill="black"/>
<path d="M42.4966 23.9867C42.5017 23.9981 42.5042 24.0064 42.5042 24.0114C42.5042 24.038 42.4397 24.0817 42.3105 24.1424C42.1612 24.2121 42.0732 24.2469 42.0466 24.2469C42.0238 24.2469 41.9975 24.2086 41.9678 24.132C41.9381 24.0554 41.9175 24.0171 41.9061 24.0171C41.9073 24.0171 41.8355 24.0503 41.6906 24.1168C41.5456 24.1833 41.4358 24.2165 41.3611 24.2165C41.194 24.2165 41.0491 24.1564 40.9263 24.0361C40.7782 23.8931 40.7041 23.6924 40.7041 23.4342C40.7041 23.2177 40.7914 23.031 40.9661 22.874C41.1206 22.736 41.2782 22.667 41.439 22.667C41.5529 22.667 41.689 22.6816 41.8472 22.7107C41.8966 22.7196 41.9213 22.705 41.9213 22.667V22.0176C41.9213 21.9442 41.9036 21.8923 41.8681 21.8619C41.8453 21.8416 41.7915 21.8176 41.7067 21.7897C41.6662 21.7746 41.6459 21.7499 41.6459 21.7157C41.6459 21.684 41.6732 21.6606 41.7276 21.6454C41.8023 21.6226 41.8915 21.5847 41.9953 21.5315C42.0814 21.4859 42.1346 21.4631 42.1548 21.4631C42.2017 21.4631 42.2251 21.4954 42.2251 21.56C42.2251 21.5587 42.2232 21.6217 42.2194 21.7489C42.2156 21.8761 42.2137 21.9999 42.2137 22.1201V23.8462C42.2137 23.9184 42.246 23.9545 42.3106 23.9545C42.3346 23.9545 42.3669 23.9507 42.4074 23.9431C42.4517 23.9355 42.4814 23.95 42.4966 23.9867ZM41.9099 23.7987V23.119C41.9099 23.0633 41.8605 23.0057 41.7618 22.9462C41.6567 22.8829 41.5428 22.8512 41.42 22.8512C41.1554 22.8512 41.0231 23.0145 41.0231 23.3411C41.0231 23.5158 41.0756 23.6652 41.1807 23.7893C41.2858 23.9133 41.4092 23.9753 41.551 23.9753C41.6156 23.9753 41.6915 23.9538 41.7789 23.9108C41.8662 23.8677 41.9099 23.8304 41.9099 23.7987Z" fill="black"/>
<path d="M43.9304 22.8266C43.9304 22.9797 43.8861 23.0563 43.7975 23.0563C43.7835 23.0563 43.7373 23.0475 43.6588 23.0297C43.5804 23.012 43.5228 23.0032 43.4861 23.0031C43.3443 23.0032 43.2734 23.0987 43.2734 23.2899V23.85C43.2734 23.9159 43.2962 23.9627 43.3417 23.9906C43.3683 24.007 43.4348 24.0292 43.5411 24.057C43.5981 24.0709 43.6266 24.0925 43.6266 24.1216C43.6266 24.1558 43.6218 24.1763 43.6123 24.1833C43.6028 24.1903 43.5791 24.1918 43.5411 24.188C43.2626 24.1589 43.0423 24.1577 42.8803 24.1843C42.8297 24.1931 42.7974 24.1931 42.7835 24.1843C42.7721 24.1767 42.7664 24.1545 42.7664 24.1178C42.7664 24.0836 42.8015 24.0564 42.8718 24.0361C42.942 24.0159 42.9772 23.9551 42.9772 23.8539V23.2443C42.9772 23.1646 42.9667 23.1108 42.9458 23.0829C42.9249 23.0551 42.8677 23.0177 42.774 22.9709L42.7626 22.9652C42.7373 22.9525 42.7246 22.9348 42.7246 22.912C42.7246 22.8867 42.7506 22.8652 42.8025 22.8475C42.8898 22.8171 42.9696 22.774 43.0417 22.7183C43.1012 22.6715 43.1392 22.6481 43.1557 22.6481C43.2012 22.6481 43.2284 22.6873 43.2373 22.7658C43.2487 22.8658 43.262 22.9158 43.2772 22.9158C43.2784 22.9158 43.3493 22.8683 43.4899 22.7734C43.5823 22.7114 43.6835 22.6804 43.7937 22.6804C43.8848 22.6804 43.9304 22.7291 43.9304 22.8266Z" fill="black"/>
<path d="M45.8121 23.4076C45.8121 23.6278 45.7304 23.8142 45.5671 23.9668C45.4038 24.1193 45.2013 24.1956 44.9595 24.1956C44.7177 24.1956 44.5266 24.1285 44.386 23.9943C44.2506 23.8626 44.1829 23.6886 44.1829 23.4721C44.1829 23.248 44.2683 23.0594 44.4392 22.9063C44.605 22.7581 44.8032 22.6841 45.0336 22.6841C45.2804 22.6841 45.4728 22.7505 45.6108 22.8835C45.745 23.0126 45.8121 23.1873 45.8121 23.4076ZM45.4779 23.5234C45.4779 23.3246 45.4298 23.1632 45.3336 23.0392C45.2399 22.9189 45.1209 22.8588 44.9766 22.8588C44.8424 22.8588 44.7329 22.9059 44.6481 23.0002C44.5633 23.0946 44.5209 23.2094 44.5209 23.3449C44.5209 23.5626 44.5702 23.7323 44.669 23.8538C44.7601 23.9652 44.8791 24.0209 45.026 24.0209C45.1652 24.0209 45.2753 23.9747 45.3564 23.8823C45.4374 23.7899 45.4779 23.6702 45.4779 23.5234Z" fill="black"/>
<path d="M47.7965 23.3564C47.7965 23.5931 47.7171 23.7941 47.5582 23.9593C47.3994 24.1245 47.2142 24.2071 47.0028 24.2071C46.875 24.2071 46.7515 24.1843 46.6325 24.1387C46.6199 24.1336 46.6136 24.1647 46.6136 24.2317V24.8033C46.6136 24.8957 46.6889 24.9552 46.8395 24.9818C46.9091 24.9945 46.9531 25.0062 46.9715 25.0169C46.9898 25.0277 46.999 25.0457 46.999 25.071C46.999 25.1141 46.9705 25.1337 46.9136 25.1299C46.6477 25.1122 46.4142 25.1185 46.2129 25.1489C46.1711 25.1552 46.1452 25.1552 46.135 25.1489C46.1249 25.1426 46.1198 25.1255 46.1198 25.0976C46.1198 25.0761 46.1559 25.0502 46.2281 25.0198C46.2901 24.9945 46.3211 24.9337 46.3211 24.8375V23.1627C46.3211 23.0272 46.2838 22.9424 46.2091 22.9082C46.1205 22.869 46.0762 22.8367 46.0762 22.8114C46.0762 22.7835 46.1021 22.7627 46.154 22.7487C46.2211 22.7323 46.2901 22.7032 46.361 22.6614C46.4205 22.6272 46.4566 22.6101 46.4692 22.6101C46.5072 22.6101 46.5382 22.6449 46.5623 22.7145C46.5977 22.8158 46.6211 22.8665 46.6325 22.8665C46.6351 22.8665 46.6895 22.8367 46.7958 22.7772C46.9123 22.7126 47.0262 22.6804 47.1376 22.6804C47.3187 22.6804 47.468 22.7316 47.5858 22.8342C47.7263 22.9544 47.7965 23.1285 47.7965 23.3564ZM47.4737 23.5083C47.4737 23.3019 47.4225 23.1412 47.3199 23.026C47.2364 22.9298 47.1383 22.8816 47.0256 22.8816C46.9383 22.8816 46.8547 22.912 46.775 22.9728C46.6699 23.0513 46.6173 23.1608 46.6174 23.3013V23.8387C46.6173 23.8729 46.6655 23.9089 46.7617 23.9469C46.8655 23.9887 46.9781 24.0096 47.0997 24.0096C47.349 24.0096 47.4737 23.8425 47.4737 23.5083Z" fill="black"/>
<path d="M50.6105 23.9905C50.6105 24.0171 50.5621 24.0573 50.4653 24.1111C50.3684 24.1649 50.2909 24.1918 50.2327 24.1918C50.1833 24.1918 50.1396 24.1677 50.1016 24.1196C50.0637 24.0715 50.0371 24.0475 50.0219 24.0475C50.0105 24.0475 49.9504 24.0734 49.8415 24.1253C49.7326 24.1772 49.6231 24.2032 49.513 24.2032C49.4092 24.2032 49.3225 24.1728 49.2528 24.112C49.1769 24.045 49.1389 23.9538 49.1389 23.8386C49.1389 23.6196 49.3896 23.4626 49.8909 23.3677C49.9769 23.3512 50.0206 23.3164 50.0219 23.2633L50.0257 23.1417C50.0333 22.9341 49.9415 22.8303 49.7503 22.8303C49.6959 22.8303 49.6443 22.879 49.5956 22.9765C49.5469 23.074 49.4769 23.1265 49.3858 23.1341C49.282 23.1443 49.2301 23.1006 49.2301 23.0031C49.2301 22.9423 49.3073 22.8715 49.4617 22.7904C49.6238 22.7056 49.7795 22.6632 49.9288 22.6632C50.1858 22.6632 50.313 22.7854 50.3105 23.0297L50.3029 23.812C50.3017 23.8943 50.3365 23.9355 50.4074 23.9355C50.4213 23.9355 50.4479 23.9323 50.4871 23.926C50.5263 23.9196 50.5491 23.9165 50.5555 23.9165C50.5922 23.9165 50.6105 23.9411 50.6105 23.9905ZM50.0257 23.5576C50.0269 23.5259 50.0197 23.505 50.0039 23.4949C49.988 23.4848 49.963 23.4829 49.9288 23.4892C49.6238 23.5437 49.4712 23.643 49.4712 23.7873C49.4712 23.9329 49.5503 24.0057 49.7086 24.0057C49.7719 24.0057 49.8371 23.9937 49.9042 23.9696C49.9826 23.9418 50.0219 23.9082 50.0219 23.869L50.0257 23.5576Z" fill="black"/>
<path d="M51.8867 23.9943C51.8867 24.0551 51.831 24.107 51.7196 24.15C51.6208 24.188 51.5208 24.207 51.4196 24.207C51.1449 24.207 51.0075 24.0608 51.0075 23.7683V23.0809C51.0075 22.9936 51.0006 22.9401 50.9866 22.9205C50.9727 22.9009 50.9265 22.8816 50.848 22.8626C50.8278 22.8575 50.8176 22.8379 50.8176 22.8037C50.8176 22.767 50.8252 22.7448 50.8404 22.7372C50.9771 22.6702 51.0961 22.5499 51.1974 22.3765C51.2113 22.3524 51.2385 22.3448 51.2791 22.3537C51.3069 22.3625 51.3215 22.379 51.3227 22.403L51.3303 22.6404C51.3303 22.6581 51.3335 22.6708 51.3398 22.6784C51.3487 22.6898 51.3689 22.6955 51.4006 22.6955H51.824C51.8481 22.6955 51.8481 22.7252 51.824 22.7847C51.7949 22.8569 51.7519 22.893 51.6949 22.893H51.4082C51.3588 22.893 51.3284 22.9012 51.317 22.9176C51.3082 22.929 51.3037 22.96 51.3037 23.0107V23.6316C51.3037 23.7886 51.3177 23.888 51.3455 23.9297C51.3822 23.9829 51.4677 24.0095 51.6019 24.0095C51.6462 24.0095 51.7 24.0022 51.7633 23.9877C51.8266 23.9731 51.8601 23.9658 51.8639 23.9658C51.8791 23.9658 51.8867 23.9753 51.8867 23.9943Z" fill="black"/>
<path d="M54.6362 23.9905C54.6362 24.0171 54.5878 24.0573 54.4909 24.1111C54.3941 24.1649 54.3165 24.1918 54.2583 24.1918C54.2089 24.1918 54.1653 24.1677 54.1273 24.1196C54.0893 24.0715 54.0627 24.0475 54.0475 24.0475C54.0361 24.0475 53.976 24.0734 53.8671 24.1253C53.7583 24.1772 53.6488 24.2032 53.5386 24.2032C53.4348 24.2032 53.3481 24.1728 53.2785 24.112C53.2025 24.045 53.1646 23.9538 53.1646 23.8386C53.1646 23.6196 53.4152 23.4626 53.9165 23.3677C54.0026 23.3512 54.0463 23.3164 54.0475 23.2633L54.0513 23.1417C54.0589 22.9341 53.9671 22.8303 53.776 22.8303C53.7215 22.8303 53.67 22.879 53.6212 22.9765C53.5725 23.074 53.5025 23.1265 53.4114 23.1341C53.3076 23.1443 53.2557 23.1006 53.2557 23.0031C53.2557 22.9423 53.3329 22.8715 53.4874 22.7904C53.6494 22.7056 53.8051 22.6632 53.9545 22.6632C54.2115 22.6632 54.3387 22.7854 54.3361 23.0297L54.3286 23.812C54.3273 23.8943 54.3621 23.9355 54.433 23.9355C54.4469 23.9355 54.4735 23.9323 54.5127 23.926C54.552 23.9196 54.5748 23.9165 54.5811 23.9165C54.6178 23.9165 54.6362 23.9411 54.6362 23.9905ZM54.0513 23.5576C54.0526 23.5259 54.0453 23.505 54.0295 23.4949C54.0137 23.4848 53.9887 23.4829 53.9545 23.4892C53.6494 23.5437 53.4969 23.643 53.4969 23.7873C53.4969 23.9329 53.576 24.0057 53.7342 24.0057C53.7975 24.0057 53.8627 23.9937 53.9298 23.9696C54.0083 23.9418 54.0475 23.9082 54.0475 23.869L54.0513 23.5576Z" fill="black"/>
<path d="M56.8769 23.9943C56.8769 24.0551 56.8212 24.107 56.7098 24.15C56.6111 24.188 56.5111 24.207 56.4098 24.207C56.1351 24.207 55.9977 24.0608 55.9977 23.7683V23.0809C55.9977 22.9936 55.9908 22.9401 55.9769 22.9205C55.9629 22.9009 55.9167 22.8816 55.8382 22.8626C55.818 22.8575 55.8079 22.8379 55.8079 22.8037C55.8079 22.767 55.8155 22.7448 55.8306 22.7372C55.9674 22.6702 56.0864 22.5499 56.1876 22.3765C56.2016 22.3524 56.2288 22.3448 56.2693 22.3537C56.2971 22.3625 56.3117 22.379 56.313 22.403L56.3206 22.6404C56.3206 22.6581 56.3237 22.6708 56.3301 22.6784C56.3389 22.6898 56.3592 22.6955 56.3908 22.6955H56.8143C56.8383 22.6955 56.8383 22.7252 56.8143 22.7847C56.7852 22.8569 56.7421 22.893 56.6851 22.893H56.3984C56.349 22.893 56.3187 22.9012 56.3073 22.9176C56.2984 22.929 56.294 22.96 56.294 23.0107V23.6316C56.294 23.7886 56.3079 23.888 56.3358 23.9297C56.3725 23.9829 56.4579 24.0095 56.5921 24.0095C56.6364 24.0095 56.6902 24.0022 56.7535 23.9877C56.8168 23.9731 56.8503 23.9658 56.8541 23.9658C56.8693 23.9658 56.8769 23.9753 56.8769 23.9943Z" fill="black"/>
<path d="M57.8282 21.9759C57.8282 22.0341 57.8064 22.0882 57.7627 22.1382C57.719 22.1882 57.6713 22.2132 57.6194 22.2132C57.5599 22.2132 57.5111 22.1955 57.4731 22.1601C57.4352 22.1246 57.4162 22.0784 57.4162 22.0214C57.4162 21.9657 57.4393 21.9138 57.4855 21.8657C57.5317 21.8176 57.5814 21.7936 57.6345 21.7936C57.7637 21.7936 57.8282 21.8543 57.8282 21.9759ZM58.039 24.1254C58.0327 24.1621 58.0175 24.183 57.9934 24.1881C57.9871 24.1893 57.9567 24.1881 57.9023 24.1843C57.7137 24.1716 57.5282 24.1741 57.3459 24.1919C57.2965 24.1969 57.2655 24.195 57.2529 24.1862C57.2402 24.1773 57.2339 24.1571 57.2339 24.1254C57.2339 24.0963 57.2674 24.0722 57.3345 24.0532C57.4079 24.0317 57.4447 23.9615 57.4447 23.8425V23.345C57.4447 23.245 57.4345 23.1747 57.4143 23.1342C57.3864 23.0785 57.3288 23.0361 57.2415 23.007C57.2022 22.993 57.1826 22.9722 57.1826 22.9443C57.1826 22.9076 57.2111 22.8804 57.2681 22.8627C57.3744 22.8297 57.4687 22.7861 57.551 22.7316C57.6168 22.6861 57.6573 22.6633 57.6725 22.6633C57.7232 22.6633 57.7478 22.6962 57.7466 22.762C57.7415 23.0937 57.739 23.4317 57.739 23.776C57.739 23.8583 57.751 23.9172 57.7751 23.9526C57.8016 23.9918 57.8523 24.0197 57.927 24.0362C58.0093 24.0551 58.0466 24.0849 58.039 24.1254Z" fill="black"/>
<path d="M61.3828 24.1216C61.3828 24.1633 61.3632 24.183 61.3239 24.1804C61.0657 24.1614 60.8252 24.1614 60.6024 24.1804C60.553 24.1842 60.5283 24.1621 60.5283 24.114C60.5283 24.076 60.5618 24.0557 60.6289 24.0532C60.7138 24.0481 60.7562 23.9791 60.7562 23.8462V23.3411C60.7562 23.0576 60.641 22.9158 60.4106 22.9158C60.289 22.9158 60.1776 22.9379 60.0764 22.9822C59.984 23.0215 59.9371 23.0607 59.9359 23.1L59.9283 23.8538C59.9283 23.9323 59.9378 23.9842 59.9567 24.0095C59.9707 24.0272 60.0017 24.0399 60.0498 24.0475C60.1612 24.0665 60.2169 24.0899 60.2169 24.1178C60.2169 24.1418 60.2137 24.1583 60.2074 24.1671C60.1998 24.1798 60.177 24.1855 60.139 24.1842C59.9947 24.1792 59.7846 24.1817 59.5086 24.1918C59.4694 24.1931 59.444 24.1899 59.4326 24.1823C59.4213 24.1747 59.4156 24.157 59.4156 24.1292C59.4156 24.0962 59.4516 24.076 59.5238 24.0684C59.6023 24.0595 59.6415 23.988 59.6415 23.8538V23.3373C59.6415 23.1981 59.6099 23.0905 59.5466 23.0145C59.4909 22.9462 59.42 22.912 59.3339 22.912C59.2073 22.912 59.0934 22.9376 58.9921 22.9889C58.8908 23.0401 58.8402 23.0949 58.8402 23.1531V23.8462C58.8402 23.9247 58.8605 23.9791 58.901 24.0095C58.9377 24.0374 59.0041 24.0545 59.1003 24.0608C59.1522 24.0633 59.1782 24.081 59.1782 24.114C59.1782 24.1507 59.1573 24.169 59.1155 24.169C58.7991 24.169 58.5699 24.1779 58.4281 24.1956C58.38 24.2019 58.349 24.2019 58.3351 24.1956C58.3237 24.1893 58.318 24.1741 58.318 24.15C58.318 24.1184 58.3648 24.0912 58.4585 24.0684C58.5155 24.0532 58.544 23.9791 58.544 23.8462V23.2633C58.544 23.1152 58.5041 23.0297 58.4243 23.0069C58.3572 22.9879 58.3164 22.974 58.3019 22.9651C58.2873 22.9563 58.28 22.9417 58.28 22.9215C58.28 22.8987 58.3459 22.8506 58.4775 22.7772C58.6168 22.6987 58.7022 22.6594 58.7339 22.6594C58.7604 22.6594 58.7829 22.6977 58.8013 22.7743C58.8196 22.8509 58.8339 22.8892 58.844 22.8892C58.8579 22.8892 58.8965 22.8696 58.9598 22.8303C59.0383 22.781 59.1092 22.7442 59.1725 22.7202C59.2763 22.6797 59.3833 22.6594 59.4934 22.6594C59.582 22.6594 59.6592 22.6784 59.7251 22.7164C59.7706 22.7417 59.8118 22.7765 59.8485 22.8208C59.8789 22.8588 59.8941 22.8778 59.8941 22.8778C59.8941 22.8778 59.927 22.8588 59.9928 22.8208C60.07 22.7765 60.1454 22.7417 60.2188 22.7164C60.3264 22.6784 60.4308 22.6594 60.5321 22.6594C60.8789 22.6594 61.0524 22.8499 61.0524 23.231V23.8462C61.0524 23.9184 61.0695 23.9696 61.1037 24C61.134 24.0253 61.1935 24.0469 61.2821 24.0646C61.3492 24.0772 61.3828 24.0962 61.3828 24.1216Z" fill="black"/>
<path d="M62.9873 23.8538C62.9873 23.9083 62.9139 23.976 62.7671 24.057C62.6 24.1469 62.4284 24.1918 62.2525 24.1918C62.0613 24.1918 61.9005 24.1292 61.7702 24.0038C61.6309 23.8709 61.5613 23.6937 61.5613 23.4722C61.5613 23.2215 61.6391 23.0202 61.7948 22.8683C61.9404 22.7265 62.1189 22.6556 62.3303 22.6556C62.4556 22.6556 62.5727 22.6955 62.6816 22.7753C62.7791 22.8462 62.8436 22.9272 62.8753 23.0183C62.8867 23.05 62.9038 23.0677 62.9266 23.0715C62.9595 23.0778 62.9759 23.1 62.9759 23.138C62.9759 23.1899 62.9139 23.2342 62.7898 23.2709L61.9145 23.531C61.9714 23.8323 62.1259 23.983 62.3778 23.983C62.5234 23.983 62.6892 23.9298 62.8753 23.8234C62.9031 23.807 62.9304 23.7988 62.9569 23.7988C62.9772 23.7988 62.9873 23.8171 62.9873 23.8538ZM62.5373 23.0924C62.5373 23.0228 62.5091 22.9617 62.4528 22.9091C62.3965 22.8566 62.3272 22.8303 62.2449 22.8303C62.0119 22.8303 61.8955 22.9981 61.8955 23.3335V23.3791L62.412 23.2234C62.4955 23.1994 62.5373 23.1557 62.5373 23.0924Z" fill="black"/>
</g>
<defs>
<clipPath id="clip0_145_498">
<rect width="63.8889" height="25" fill="white" transform="translate(0.677734 0.872314)"/>
</clipPath>
</defs>
</svg>
