<svg width="35" height="35" viewBox="0 0 35 35" fill="none" xmlns="http://www.w3.org/2000/svg">
<path d="M29.8667 6.86096L27.6134 32.1036L17.4848 34.9116L7.38401 32.1075L5.13306 6.86096H29.8667Z" fill="#E44D26"/>
<path d="M17.5 32.7652L25.6845 30.4962L27.61 8.92517H17.5V32.7652Z" fill="#F16529"/>
<path d="M13.1198 15.1181H17.5001V12.0217H9.73584L9.80991 12.8524L10.571 21.3852H17.5001V18.2889H13.4028L13.1198 15.1181ZM13.8177 22.9335H10.7093L11.1431 27.7953L17.4859 29.556L17.5001 29.5521V26.3305L17.4865 26.3341L14.0381 25.403L13.8177 22.9335Z" fill="#EBEBEB"/>
<path d="M7.43433 0H9.00787V1.55464H10.4473V0H12.021V4.70784H10.4474V3.13139H9.00797V4.70784H7.43442L7.43433 0ZM14.0901 1.56123H12.7051V0H17.0499V1.56123H15.664V4.70784H14.0904V1.56123H14.0901ZM17.7395 0H19.3802L20.3895 1.65421L21.3978 0H23.0392V4.70784H21.472V2.37438L20.3895 4.04827H20.3623L19.2791 2.37438V4.70784H17.7395V0ZM23.8223 0H25.3963V3.15175H27.6092V4.70784H23.8222V0H23.8223Z" fill="#2C3E50"/>
<path d="M17.4894 21.3852H21.3022L20.9427 25.401L17.4893 26.3331V29.5545L23.8371 27.7953L23.8836 27.2721L24.6113 19.1203L24.6868 18.2889H17.4894V21.3852ZM17.4894 15.1106V15.1181H24.9686L25.0306 14.4222L25.1718 12.8524L25.2458 12.0217H17.4894V15.1106Z" fill="white"/>
</svg>
