<svg width="30" height="30" viewBox="0 0 30 30" fill="none" xmlns="http://www.w3.org/2000/svg">
<path d="M0 0H30V30H0V0Z" fill="#F0DB4F"/>
<path d="M27.5447 22.845C27.3251 21.4762 26.4325 20.327 23.789 19.2547C22.8708 18.8327 21.847 18.5304 21.5419 17.8346C21.4335 17.4296 21.4192 17.2015 21.4877 16.9562C21.6844 16.1606 22.6341 15.9125 23.3869 16.1406C23.8717 16.3032 24.3308 16.6768 24.6074 17.2728C25.9021 16.4344 25.8993 16.4401 26.8033 15.8641C26.4725 15.3507 26.2957 15.114 26.0789 14.8945C25.3004 14.0247 24.2396 13.577 22.5428 13.6112C22.2491 13.6483 21.9525 13.6882 21.6588 13.7253C20.8118 13.9391 20.0048 14.384 19.5314 14.98C18.1112 16.5912 18.5162 19.4116 20.2443 20.5722C21.9468 21.8498 24.4477 22.1407 24.7671 23.3355C25.078 24.7985 23.6921 25.2718 22.3147 25.1036C21.2995 24.8926 20.7348 24.3764 20.1246 23.4382C19.001 24.0884 19.001 24.0884 17.8461 24.7528C18.1198 25.3517 18.4078 25.6226 18.867 26.1416C21.04 28.346 26.4782 28.2376 27.4535 24.9011C27.4934 24.787 27.7558 24.0228 27.5447 22.845ZM16.309 13.788H13.5029C13.5029 16.2119 13.4915 18.6188 13.4915 21.0427C13.4915 22.5855 13.5714 24 13.3204 24.4334C12.9098 25.286 11.8461 25.1806 11.3613 25.0151C10.8679 24.7727 10.617 24.4277 10.3261 23.9401C10.2463 23.8003 10.1864 23.692 10.1664 23.6834C9.405 24.1482 8.64642 24.6159 7.88501 25.0808C8.26432 25.8593 8.82322 26.5351 9.539 26.9743C10.6084 27.6159 12.0457 27.8127 13.5485 27.4676C14.5267 27.1824 15.3708 26.5922 15.8128 25.6939C16.4515 24.5161 16.3147 23.0903 16.309 21.5133C16.3232 18.941 16.309 16.3688 16.309 13.788Z" fill="#323330"/>
</svg>
