<svg width="84" height="22" viewBox="0 0 84 22" fill="none" xmlns="http://www.w3.org/2000/svg">
<path d="M6.21864 3.03122C5.40385 2.0645 4.70223 1.08268 4.55889 0.87876C4.5438 0.863655 4.52116 0.863655 4.50607 0.87876C4.36273 1.08268 3.66111 2.0645 2.84632 3.03122C-4.14727 11.9507 3.9478 17.97 3.9478 17.97L4.01569 18.0154C4.07604 18.9443 4.22693 20.2811 4.22693 20.2811H4.5287H4.83048C4.83048 20.2811 4.98137 18.9518 5.04172 18.0154L5.10962 17.9625C5.11716 17.97 13.2123 11.9507 6.21864 3.03122ZM4.5287 17.8341C4.5287 17.8341 4.16658 17.5244 4.0685 17.3659V17.3507L4.50607 7.63824C4.50607 7.60802 4.55134 7.60802 4.55134 7.63824L4.98891 17.3507V17.3659C4.89083 17.5244 4.5287 17.8341 4.5287 17.8341Z" fill="#001E2B"/>
<path d="M19.6782 15.852L16.3049 7.61308L16.2973 7.59033H13.6728V8.14414H14.0963C14.2249 8.14414 14.3459 8.19725 14.4367 8.28829C14.5274 8.37932 14.5728 8.50074 14.5728 8.62968L14.4972 16.9217C14.4972 17.1796 14.2855 17.392 14.0283 17.3997L13.5972 17.4072V17.9535H16.1537V17.4072L15.8889 17.3997C15.6318 17.392 15.4199 17.1796 15.4199 16.9217V9.10762L19.0958 17.9535C19.1487 18.0824 19.2697 18.1659 19.4059 18.1659C19.5421 18.1659 19.6631 18.0824 19.716 17.9535L23.3087 9.30485L23.3616 16.9217C23.3616 17.1873 23.1498 17.3997 22.8851 17.4072H22.6128V17.9535H25.608V17.4072H25.1995C24.9424 17.4072 24.7306 17.1873 24.723 16.9293L24.7004 8.63723C24.7004 8.37174 24.9121 8.15931 25.1693 8.15173L25.608 8.14414V7.59033H23.0515L19.6782 15.852Z" fill="#001E2B"/>
<path d="M43.1987 17.2631C43.1152 17.1795 43.0697 17.0655 43.0697 16.9287V12.8553C43.0697 12.0802 42.8423 11.4722 42.3872 11.0391C41.9399 10.6058 41.3181 10.3855 40.5446 10.3855C39.4602 10.3855 38.6033 10.8263 38.0042 11.6926C37.9967 11.7078 37.9739 11.7154 37.9512 11.7154C37.9284 11.7154 37.9133 11.7002 37.9133 11.6775L37.6326 10.5907H37.1625L35.9568 11.2822V11.6622H36.2677C36.4118 11.6622 36.5331 11.7002 36.6166 11.7763C36.6999 11.8522 36.7454 11.9662 36.7454 12.1258V16.9211C36.7454 17.0579 36.6999 17.1719 36.6166 17.2555C36.5331 17.3391 36.4194 17.3847 36.2829 17.3847H35.9795V17.9395H38.7549V17.3847H38.4516C38.3151 17.3847 38.2014 17.3391 38.118 17.2555C38.0346 17.1719 37.989 17.0579 37.989 16.9211V13.7445C37.989 13.3417 38.0801 12.939 38.2469 12.5437C38.4213 12.1562 38.6791 11.8294 39.0204 11.5786C39.3616 11.3279 39.7711 11.2062 40.2412 11.2062C40.7721 11.2062 41.174 11.3734 41.4242 11.7078C41.6745 12.0422 41.8034 12.4754 41.8034 12.9921V16.9136C41.8034 17.0503 41.7578 17.1643 41.6745 17.2479C41.5911 17.3315 41.4773 17.3771 41.3408 17.3771H41.0375V17.9318H43.8129V17.3771H43.5096C43.3958 17.3923 43.2896 17.3467 43.1987 17.2631Z" fill="#001E2B"/>
<path d="M68.5557 8.21066C67.7885 7.80214 66.9311 7.59033 66.0059 7.59033H62.3958V8.14257H62.7493C62.8846 8.14257 63.005 8.19553 63.1253 8.31657C63.2382 8.43003 63.2983 8.55867 63.2983 8.6948V16.8348C63.2983 16.9709 63.2382 17.0996 63.1253 17.213C63.0125 17.3265 62.8846 17.387 62.7493 17.387H62.3958V17.9393H66.0059C66.9311 17.9393 67.7885 17.7274 68.5557 17.3189C69.3228 16.9104 69.9471 16.3052 70.3984 15.5336C70.8497 14.762 71.0828 13.8315 71.0828 12.7723C71.0828 11.7133 70.8497 10.7903 70.3984 10.0111C69.9396 9.2244 69.3228 8.62673 68.5557 8.21066ZM69.6312 12.7572C69.6312 13.7256 69.4582 14.5425 69.1198 15.2007C68.7813 15.8589 68.33 16.3506 67.7734 16.6684C67.2169 16.9861 66.6001 17.145 65.9383 17.145H65.2087C65.0733 17.145 64.953 17.092 64.8327 16.9709C64.7198 16.8575 64.6597 16.7289 64.6597 16.5927V8.91424C64.6597 8.77804 64.7123 8.65703 64.8327 8.53594C64.9454 8.42248 65.0733 8.36196 65.2087 8.36196H65.9383C66.6001 8.36196 67.2169 8.52083 67.7734 8.83855C68.33 9.15627 68.7813 9.64803 69.1198 10.3061C69.4582 10.9719 69.6312 11.7965 69.6312 12.7572Z" fill="#001E2B"/>
<path d="M79.6164 13.3095C79.2825 12.9237 78.6382 12.5984 77.8805 12.4243C78.9267 11.9024 79.4646 11.1686 79.4646 10.223C79.4646 9.70854 79.3286 9.24707 79.0551 8.85366C78.7824 8.46032 78.3957 8.14257 77.9032 7.92318C77.4099 7.7038 76.8335 7.59033 76.1816 7.59033H72.0951V8.14257H72.4211C72.5575 8.14257 72.6788 8.19553 72.8002 8.31657C72.9139 8.43003 72.9746 8.55867 72.9746 8.6948V16.8348C72.9746 16.9709 72.9139 17.0996 72.8002 17.213C72.6865 17.3265 72.5575 17.387 72.4211 17.387H72.0647V17.9393H76.5004C77.1749 17.9393 77.8042 17.8258 78.373 17.5988C78.9418 17.3719 79.3966 17.039 79.7229 16.6002C80.056 16.1615 80.223 15.6243 80.223 15.004C80.2154 14.3383 80.0183 13.7709 79.6164 13.3095ZM74.5289 16.9785C74.4151 16.865 74.3545 16.7364 74.3545 16.6002V12.9463H76.4626C77.2052 12.9463 77.774 13.1355 78.1683 13.5137C78.5626 13.892 78.7598 14.3837 78.7598 14.9889C78.7598 15.352 78.6684 15.7076 78.5022 16.0329C78.3277 16.3658 78.0693 16.6305 77.7211 16.8348C77.3797 17.039 76.9551 17.145 76.4626 17.145H74.9079C74.7715 17.145 74.6502 17.092 74.5289 16.9785ZM74.3621 12.1671V8.92179C74.3621 8.78559 74.4151 8.66458 74.5364 8.54349C74.6502 8.43003 74.7791 8.36952 74.9156 8.36952H75.9165C76.6364 8.36952 77.1674 8.55112 77.5013 8.89905C77.8344 9.25462 78.0013 9.70854 78.0013 10.2684C78.0013 10.8433 77.842 11.3048 77.5315 11.6527C77.2203 11.9932 76.7504 12.1671 76.1287 12.1671H74.3621Z" fill="#001E2B"/>
<path d="M32.633 10.868C32.0536 10.5514 31.4066 10.3855 30.7068 10.3855C30.0071 10.3855 29.3525 10.5438 28.7807 10.868C28.2013 11.1846 27.7423 11.6445 27.4037 12.225C27.0652 12.8056 26.8921 13.4841 26.8921 14.238C26.8921 14.9919 27.0652 15.6705 27.4037 16.251C27.7423 16.8315 28.2013 17.2914 28.7807 17.6081C29.36 17.9246 30.0071 18.0905 30.7068 18.0905C31.4066 18.0905 32.0612 17.9322 32.633 17.6081C33.2124 17.2914 33.6714 16.8315 34.01 16.251C34.3485 15.6705 34.5216 14.9919 34.5216 14.238C34.5216 13.4841 34.3485 12.8056 34.01 12.225C33.6714 11.6445 33.2124 11.1846 32.633 10.868ZM33.1898 14.238C33.1898 15.1653 32.9641 15.9192 32.5126 16.4621C32.0687 17.0049 31.4593 17.2838 30.7068 17.2838C29.9545 17.2838 29.3449 17.0049 28.9011 16.4621C28.4496 15.9192 28.2239 15.1653 28.2239 14.238C28.2239 13.3107 28.4496 12.5568 28.9011 12.014C29.3449 11.4712 29.9545 11.1922 30.7068 11.1922C31.4593 11.1922 32.0687 11.4712 32.5126 12.014C32.9641 12.5568 33.1898 13.3107 33.1898 14.238Z" fill="#001E2B"/>
<path d="M59.2986 10.868C58.7192 10.5514 58.0721 10.3855 57.3724 10.3855C56.6726 10.3855 56.018 10.5438 55.4462 10.868C54.8668 11.1846 54.4078 11.6445 54.0692 12.225C53.7307 12.8056 53.5576 13.4841 53.5576 14.238C53.5576 14.9919 53.7307 15.6705 54.0692 16.251C54.4078 16.8315 54.8668 17.2914 55.4462 17.6081C56.0256 17.9246 56.6726 18.0905 57.3724 18.0905C58.0721 18.0905 58.7267 17.9322 59.2986 17.6081C59.8779 17.2914 60.3369 16.8315 60.6755 16.251C61.0141 15.6705 61.1871 14.9919 61.1871 14.238C61.1871 13.4841 61.0141 12.8056 60.6755 12.225C60.3369 11.6445 59.8704 11.1846 59.2986 10.868ZM59.8554 14.238C59.8554 15.1653 59.6296 15.9192 59.1781 16.4621C58.7342 17.0049 58.1247 17.2838 57.3724 17.2838C56.6199 17.2838 56.0105 17.0049 55.5666 16.4621C55.1151 15.9192 54.8894 15.1653 54.8894 14.238C54.8894 13.3031 55.1151 12.5568 55.5666 12.014C56.0105 11.4712 56.6199 11.1922 57.3724 11.1922C58.1247 11.1922 58.7342 11.4712 59.1781 12.014C59.6221 12.5568 59.8554 13.3107 59.8554 14.238Z" fill="#001E2B"/>
<path d="M48.5447 10.3855C47.9384 10.3855 47.3853 10.5142 46.8852 10.7717C46.385 11.0292 45.991 11.3777 45.7106 11.8245C45.4303 12.2638 45.2863 12.7562 45.2863 13.2787C45.2863 13.7483 45.3924 14.18 45.6121 14.5663C45.8243 14.9374 46.1122 15.2479 46.476 15.5054L45.3924 16.9748C45.2559 17.1566 45.2408 17.3989 45.3393 17.5958C45.4454 17.8003 45.6424 17.9216 45.8698 17.9216H46.1805C45.8773 18.126 45.6348 18.3684 45.4681 18.6562C45.2711 18.9818 45.1726 19.3227 45.1726 19.671C45.1726 20.3224 45.4606 20.8602 46.0289 21.2616C46.5897 21.663 47.3777 21.8675 48.3703 21.8675C49.0599 21.8675 49.7192 21.7539 50.3178 21.5342C50.924 21.3146 51.4166 20.9889 51.7803 20.5648C52.1516 20.1407 52.3411 19.6256 52.3411 19.0349C52.3411 18.4138 52.1137 17.9745 51.5833 17.5504C51.1287 17.1944 50.4163 17.0051 49.5297 17.0051H46.4987C46.4912 17.0051 46.4835 16.9975 46.4835 16.9975C46.4835 16.9975 46.476 16.9824 46.4835 16.9748L47.2716 15.9145C47.4838 16.0129 47.6808 16.0735 47.8551 16.1113C48.0369 16.1492 48.2416 16.1644 48.4689 16.1644C49.1054 16.1644 49.6813 16.0356 50.1814 15.7781C50.6816 15.5206 51.0832 15.1722 51.3712 14.7253C51.659 14.2861 51.803 13.7938 51.803 13.2712C51.803 12.7107 51.5302 11.6882 50.7876 11.1656C50.7876 11.158 50.7952 11.158 50.7952 11.158L52.4244 11.3398V10.59H49.8177C49.4085 10.4613 48.9842 10.3855 48.5447 10.3855ZM49.454 15.1267C49.166 15.2782 48.8553 15.3615 48.5447 15.3615C48.037 15.3615 47.5899 15.1798 47.211 14.8238C46.8321 14.4678 46.6427 13.9452 46.6427 13.2787C46.6427 12.6123 46.8321 12.0896 47.211 11.7337C47.5899 11.3777 48.037 11.1959 48.5447 11.1959C48.8629 11.1959 49.166 11.2717 49.454 11.4307C49.7419 11.5822 49.9768 11.817 50.1663 12.1275C50.3481 12.4381 50.4466 12.8243 50.4466 13.2787C50.4466 13.7407 50.3557 14.127 50.1663 14.43C49.9844 14.7405 49.7419 14.9753 49.454 15.1267ZM47.4004 17.9139H49.454C50.0223 17.9139 50.386 18.0275 50.6285 18.2699C50.871 18.5123 50.9923 18.8379 50.9923 19.2167C50.9923 19.7696 50.7725 20.224 50.333 20.5648C49.8935 20.9057 49.3024 21.0799 48.575 21.0799C47.9384 21.0799 47.408 20.936 47.0215 20.6633C46.6351 20.3906 46.438 19.974 46.438 19.4439C46.438 19.1106 46.529 18.8001 46.7109 18.5275C46.8927 18.2548 47.1125 18.0578 47.4004 17.9139Z" fill="#001E2B"/>
<path d="M81.7602 17.8129C81.6106 17.7311 81.4981 17.6121 81.4082 17.4708C81.3258 17.3222 81.2805 17.166 81.2805 16.995C81.2805 16.824 81.3258 16.6605 81.4082 16.5192C81.4905 16.3705 81.6106 16.259 81.7602 16.1772C81.9105 16.0954 82.0752 16.0508 82.2625 16.0508C82.4499 16.0508 82.6145 16.0954 82.7649 16.1772C82.9144 16.259 83.027 16.3779 83.1169 16.5192C83.1992 16.6679 83.2445 16.824 83.2445 16.995C83.2445 17.166 83.1992 17.3296 83.1169 17.4708C83.0346 17.6196 82.9144 17.7311 82.7649 17.8129C82.6145 17.8946 82.4499 17.9393 82.2625 17.9393C82.0827 17.9393 81.9105 17.9021 81.7602 17.8129ZM82.6825 17.7088C82.8094 17.6419 82.9001 17.5378 82.9749 17.4188C83.0421 17.2924 83.0799 17.1512 83.0799 16.995C83.0799 16.8389 83.0421 16.6976 82.9749 16.5712C82.9069 16.4449 82.8094 16.3482 82.6825 16.2813C82.5549 16.2143 82.4197 16.1772 82.2625 16.1772C82.1054 16.1772 81.9702 16.2143 81.8425 16.2813C81.7156 16.3482 81.625 16.4523 81.5502 16.5712C81.483 16.6976 81.4452 16.8389 81.4452 16.995C81.4452 17.1512 81.483 17.2924 81.5502 17.4188C81.6182 17.5452 81.7156 17.6419 81.8425 17.7088C81.9702 17.7757 82.1054 17.8129 82.2625 17.8129C82.4197 17.8129 82.5624 17.7757 82.6825 17.7088ZM81.8576 17.4486V17.3816L81.8727 17.3742H81.9181C81.9324 17.3742 81.9475 17.3668 81.9551 17.3594C81.9702 17.3445 81.9702 17.3371 81.9702 17.3222V16.6307C81.9702 16.6158 81.9626 16.601 81.9551 16.5935C81.94 16.5787 81.9324 16.5787 81.9181 16.5787H81.8727L81.8576 16.5712V16.5043L81.8727 16.4969H82.2625C82.3751 16.4969 82.4574 16.5192 82.5247 16.5712C82.5926 16.6233 82.6221 16.6902 82.6221 16.7794C82.6221 16.8464 82.6002 16.9132 82.5473 16.9579C82.4952 17.0099 82.4348 17.0397 82.36 17.0471L82.4499 17.0768L82.6221 17.3519C82.6372 17.3742 82.6523 17.3816 82.675 17.3816H82.7196L82.7271 17.3891V17.456L82.7196 17.4634H82.4876L82.4725 17.456L82.2323 17.0545H82.1726V17.3222C82.1726 17.3371 82.1802 17.3519 82.1877 17.3594C82.2029 17.3742 82.2104 17.3742 82.2248 17.3742H82.2701L82.2852 17.3816V17.4486L82.2701 17.456H81.8727L81.8576 17.4486ZM82.2399 16.9579C82.3003 16.9579 82.3524 16.943 82.3826 16.9058C82.4121 16.8761 82.4348 16.824 82.4348 16.7646C82.4348 16.705 82.4196 16.6605 82.3902 16.6233C82.36 16.5861 82.3147 16.5712 82.2625 16.5712H82.2323C82.2172 16.5712 82.2029 16.5787 82.1953 16.5861C82.1802 16.6009 82.1802 16.6084 82.1802 16.6233V16.9579H82.2399Z" fill="#001E2B"/>
</svg>
