<svg width="84" height="22" viewBox="0 0 84 22" fill="none" xmlns="http://www.w3.org/2000/svg">
<path d="M6.21864 3.0361C5.40385 2.06938 4.70223 1.08756 4.55889 0.883643C4.5438 0.868538 4.52116 0.868538 4.50607 0.883643C4.36273 1.08756 3.66111 2.06938 2.84632 3.0361C-4.14727 11.9556 3.9478 17.9749 3.9478 17.9749L4.01569 18.0203C4.07604 18.9492 4.22693 20.286 4.22693 20.286H4.5287H4.83048C4.83048 20.286 4.98137 18.9567 5.04172 18.0203L5.10962 17.9674C5.11716 17.9749 13.2123 11.9556 6.21864 3.0361ZM4.5287 17.839C4.5287 17.839 4.16658 17.5293 4.0685 17.3708V17.3556L4.50607 7.64312C4.50607 7.61291 4.55134 7.61291 4.55134 7.64312L4.98891 17.3556V17.3708C4.89083 17.5293 4.5287 17.839 4.5287 17.839Z" fill="#001E2B"/>
<path d="M19.6782 15.8569L16.3049 7.61797L16.2973 7.59521H13.6728V8.14903H14.0963C14.2249 8.14903 14.3459 8.20213 14.4367 8.29317C14.5274 8.3842 14.5728 8.50562 14.5728 8.63456L14.4972 16.9266C14.4972 17.1845 14.2855 17.3969 14.0283 17.4046L13.5972 17.4121V17.9583H16.1537V17.4121L15.8889 17.4046C15.6318 17.3969 15.4199 17.1845 15.4199 16.9266V9.1125L19.0958 17.9583C19.1487 18.0873 19.2697 18.1708 19.4059 18.1708C19.5421 18.1708 19.6631 18.0873 19.716 17.9583L23.3087 9.30974L23.3616 16.9266C23.3616 17.1921 23.1498 17.4046 22.8851 17.4121H22.6128V17.9583H25.608V17.4121H25.1995C24.9424 17.4121 24.7306 17.1921 24.723 16.9342L24.7004 8.64212C24.7004 8.37662 24.9121 8.16419 25.1693 8.15661L25.608 8.14903V7.59521H23.0515L19.6782 15.8569Z" fill="#001E2B"/>
<path d="M43.1987 17.268C43.1152 17.1844 43.0697 17.0704 43.0697 16.9336V12.8602C43.0697 12.0851 42.8423 11.4771 42.3872 11.0439C41.9399 10.6107 41.3181 10.3904 40.5446 10.3904C39.4602 10.3904 38.6033 10.8312 38.0042 11.6975C37.9967 11.7127 37.9739 11.7203 37.9512 11.7203C37.9284 11.7203 37.9133 11.7051 37.9133 11.6823L37.6326 10.5955H37.1625L35.9568 11.2871V11.6671H36.2677C36.4118 11.6671 36.5331 11.7051 36.6166 11.7811C36.6999 11.8571 36.7454 11.9711 36.7454 12.1307V16.926C36.7454 17.0628 36.6999 17.1768 36.6166 17.2604C36.5331 17.3439 36.4194 17.3896 36.2829 17.3896H35.9795V17.9443H38.7549V17.3896H38.4516C38.3151 17.3896 38.2014 17.3439 38.118 17.2604C38.0346 17.1768 37.989 17.0628 37.989 16.926V13.7494C37.989 13.3466 38.0801 12.9438 38.2469 12.5486C38.4213 12.1611 38.6791 11.8343 39.0204 11.5835C39.3616 11.3327 39.7711 11.2111 40.2412 11.2111C40.7721 11.2111 41.174 11.3783 41.4242 11.7127C41.6745 12.0471 41.8034 12.4803 41.8034 12.997V16.9184C41.8034 17.0552 41.7578 17.1692 41.6745 17.2528C41.5911 17.3364 41.4773 17.3819 41.3408 17.3819H41.0375V17.9367H43.8129V17.3819H43.5096C43.3958 17.3972 43.2896 17.3516 43.1987 17.268Z" fill="#001E2B"/>
<path d="M68.5557 8.21554C67.7885 7.80703 66.9311 7.59521 66.0059 7.59521H62.3958V8.14745H62.7493C62.8846 8.14745 63.005 8.20042 63.1253 8.32145C63.2382 8.43491 63.2983 8.56356 63.2983 8.69968V16.8397C63.2983 16.9758 63.2382 17.1044 63.1253 17.2179C63.0125 17.3314 62.8846 17.3919 62.7493 17.3919H62.3958V17.9441H66.0059C66.9311 17.9441 67.7885 17.7323 68.5557 17.3238C69.3228 16.9153 69.9471 16.3101 70.3984 15.5385C70.8497 14.7669 71.0828 13.8364 71.0828 12.7772C71.0828 11.7182 70.8497 10.7952 70.3984 10.016C69.9396 9.22929 69.3228 8.63162 68.5557 8.21554ZM69.6312 12.7621C69.6312 13.7305 69.4582 14.5474 69.1198 15.2056C68.7813 15.8638 68.33 16.3555 67.7734 16.6733C67.2169 16.991 66.6001 17.1498 65.9383 17.1498H65.2087C65.0733 17.1498 64.953 17.0969 64.8327 16.9758C64.7198 16.8623 64.6597 16.7338 64.6597 16.5976V8.91912C64.6597 8.78292 64.7123 8.66191 64.8327 8.54082C64.9454 8.42736 65.0733 8.36684 65.2087 8.36684H65.9383C66.6001 8.36684 67.2169 8.52571 67.7734 8.84343C68.33 9.16115 68.7813 9.65291 69.1198 10.311C69.4582 10.9767 69.6312 11.8013 69.6312 12.7621Z" fill="#001E2B"/>
<path d="M79.6164 13.3144C79.2825 12.9285 78.6382 12.6033 77.8805 12.4292C78.9267 11.9072 79.4646 11.1734 79.4646 10.2278C79.4646 9.71342 79.3286 9.25195 79.0551 8.85854C78.7824 8.4652 78.3957 8.14745 77.9032 7.92807C77.4099 7.70868 76.8335 7.59521 76.1816 7.59521H72.0951V8.14745H72.4211C72.5575 8.14745 72.6788 8.20042 72.8002 8.32145C72.9139 8.43491 72.9746 8.56356 72.9746 8.69968V16.8397C72.9746 16.9758 72.9139 17.1044 72.8002 17.2179C72.6865 17.3314 72.5575 17.3919 72.4211 17.3919H72.0647V17.9441H76.5004C77.1749 17.9441 77.8042 17.8307 78.373 17.6037C78.9418 17.3768 79.3966 17.0439 79.7229 16.6051C80.056 16.1664 80.223 15.6292 80.223 15.0089C80.2154 14.3432 80.0183 13.7758 79.6164 13.3144ZM74.5289 16.9833C74.4151 16.8699 74.3545 16.7413 74.3545 16.6051V12.9512H76.4626C77.2052 12.9512 77.774 13.1403 78.1683 13.5186C78.5626 13.8969 78.7598 14.3886 78.7598 14.9938C78.7598 15.3569 78.6684 15.7125 78.5022 16.0377C78.3277 16.3706 78.0693 16.6354 77.7211 16.8397C77.3797 17.0439 76.9551 17.1498 76.4626 17.1498H74.9079C74.7715 17.1498 74.6502 17.0969 74.5289 16.9833ZM74.3621 12.172V8.92668C74.3621 8.79048 74.4151 8.66946 74.5364 8.54837C74.6502 8.43491 74.7791 8.37441 74.9156 8.37441H75.9165C76.6364 8.37441 77.1674 8.556 77.5013 8.90394C77.8344 9.2595 78.0013 9.71342 78.0013 10.2732C78.0013 10.8482 77.842 11.3096 77.5315 11.6576C77.2203 11.998 76.7504 12.172 76.1287 12.172H74.3621Z" fill="#001E2B"/>
<path d="M32.633 10.8729C32.0536 10.5563 31.4066 10.3904 30.7068 10.3904C30.0071 10.3904 29.3525 10.5487 28.7807 10.8729C28.2013 11.1895 27.7423 11.6494 27.4037 12.2299C27.0652 12.8104 26.8921 13.489 26.8921 14.2429C26.8921 14.9968 27.0652 15.6754 27.4037 16.2559C27.7423 16.8364 28.2013 17.2963 28.7807 17.6129C29.36 17.9295 30.0071 18.0954 30.7068 18.0954C31.4066 18.0954 32.0612 17.9371 32.633 17.6129C33.2124 17.2963 33.6714 16.8364 34.01 16.2559C34.3485 15.6754 34.5216 14.9968 34.5216 14.2429C34.5216 13.489 34.3485 12.8104 34.01 12.2299C33.6714 11.6494 33.2124 11.1895 32.633 10.8729ZM33.1898 14.2429C33.1898 15.1702 32.9641 15.9241 32.5126 16.4669C32.0687 17.0098 31.4593 17.2887 30.7068 17.2887C29.9545 17.2887 29.3449 17.0098 28.9011 16.4669C28.4496 15.9241 28.2239 15.1702 28.2239 14.2429C28.2239 13.3156 28.4496 12.5617 28.9011 12.0189C29.3449 11.476 29.9545 11.1971 30.7068 11.1971C31.4593 11.1971 32.0687 11.476 32.5126 12.0189C32.9641 12.5617 33.1898 13.3156 33.1898 14.2429Z" fill="#001E2B"/>
<path d="M59.2986 10.8729C58.7192 10.5563 58.0721 10.3904 57.3724 10.3904C56.6726 10.3904 56.018 10.5487 55.4462 10.8729C54.8668 11.1895 54.4078 11.6494 54.0692 12.2299C53.7307 12.8104 53.5576 13.489 53.5576 14.2429C53.5576 14.9968 53.7307 15.6754 54.0692 16.2559C54.4078 16.8364 54.8668 17.2963 55.4462 17.6129C56.0256 17.9295 56.6726 18.0954 57.3724 18.0954C58.0721 18.0954 58.7267 17.9371 59.2986 17.6129C59.8779 17.2963 60.3369 16.8364 60.6755 16.2559C61.0141 15.6754 61.1871 14.9968 61.1871 14.2429C61.1871 13.489 61.0141 12.8104 60.6755 12.2299C60.3369 11.6494 59.8704 11.1895 59.2986 10.8729ZM59.8554 14.2429C59.8554 15.1702 59.6296 15.9241 59.1781 16.4669C58.7342 17.0098 58.1247 17.2887 57.3724 17.2887C56.6199 17.2887 56.0105 17.0098 55.5666 16.4669C55.1151 15.9241 54.8894 15.1702 54.8894 14.2429C54.8894 13.308 55.1151 12.5617 55.5666 12.0189C56.0105 11.476 56.6199 11.1971 57.3724 11.1971C58.1247 11.1971 58.7342 11.476 59.1781 12.0189C59.6221 12.5617 59.8554 13.3156 59.8554 14.2429Z" fill="#001E2B"/>
<path d="M48.5447 10.3904C47.9384 10.3904 47.3853 10.5191 46.8852 10.7766C46.385 11.0341 45.991 11.3826 45.7106 11.8294C45.4303 12.2687 45.2863 12.761 45.2863 13.2836C45.2863 13.7532 45.3924 14.1849 45.6121 14.5712C45.8243 14.9423 46.1122 15.2528 46.476 15.5103L45.3924 16.9797C45.2559 17.1614 45.2408 17.4038 45.3393 17.6007C45.4454 17.8052 45.6424 17.9264 45.8698 17.9264H46.1805C45.8773 18.1309 45.6348 18.3733 45.4681 18.6611C45.2711 18.9867 45.1726 19.3275 45.1726 19.6759C45.1726 20.3273 45.4606 20.8651 46.0289 21.2665C46.5897 21.6679 47.3777 21.8724 48.3703 21.8724C49.0599 21.8724 49.7192 21.7588 50.3178 21.5391C50.924 21.3195 51.4166 20.9938 51.7803 20.5697C52.1516 20.1456 52.3411 19.6305 52.3411 19.0397C52.3411 18.4187 52.1137 17.9794 51.5833 17.5553C51.1287 17.1993 50.4163 17.01 49.5297 17.01H46.4987C46.4912 17.01 46.4835 17.0024 46.4835 17.0024C46.4835 17.0024 46.476 16.9873 46.4835 16.9797L47.2716 15.9193C47.4838 16.0178 47.6808 16.0784 47.8551 16.1162C48.0369 16.1541 48.2416 16.1692 48.4689 16.1692C49.1054 16.1692 49.6813 16.0405 50.1814 15.783C50.6816 15.5255 51.0832 15.1771 51.3712 14.7302C51.659 14.2909 51.803 13.7987 51.803 13.2761C51.803 12.7156 51.5302 11.6931 50.7876 11.1705C50.7876 11.1629 50.7952 11.1629 50.7952 11.1629L52.4244 11.3447V10.5949H49.8177C49.4085 10.4661 48.9842 10.3904 48.5447 10.3904ZM49.454 15.1316C49.166 15.2831 48.8553 15.3664 48.5447 15.3664C48.037 15.3664 47.5899 15.1847 47.211 14.8287C46.8321 14.4727 46.6427 13.9501 46.6427 13.2836C46.6427 12.6171 46.8321 12.0945 47.211 11.7385C47.5899 11.3826 48.037 11.2008 48.5447 11.2008C48.8629 11.2008 49.166 11.2765 49.454 11.4355C49.7419 11.5871 49.9768 11.8219 50.1663 12.1324C50.3481 12.4429 50.4466 12.8292 50.4466 13.2836C50.4466 13.7456 50.3557 14.1319 50.1663 14.4348C49.9844 14.7454 49.7419 14.9802 49.454 15.1316ZM47.4004 17.9188H49.454C50.0223 17.9188 50.386 18.0324 50.6285 18.2748C50.871 18.5172 50.9923 18.8428 50.9923 19.2216C50.9923 19.7744 50.7725 20.2289 50.333 20.5697C49.8935 20.9106 49.3024 21.0847 48.575 21.0847C47.9384 21.0847 47.408 20.9408 47.0215 20.6681C46.6351 20.3955 46.438 19.9789 46.438 19.4488C46.438 19.1155 46.529 18.805 46.7109 18.5323C46.8927 18.2596 47.1125 18.0627 47.4004 17.9188Z" fill="#001E2B"/>
<path d="M81.7602 17.8178C81.6106 17.736 81.4981 17.617 81.4082 17.4757C81.3258 17.3271 81.2805 17.1709 81.2805 16.9999C81.2805 16.8289 81.3258 16.6653 81.4082 16.5241C81.4905 16.3753 81.6106 16.2639 81.7602 16.182C81.9105 16.1003 82.0752 16.0557 82.2625 16.0557C82.4499 16.0557 82.6145 16.1003 82.7649 16.182C82.9144 16.2639 83.027 16.3828 83.1169 16.5241C83.1992 16.6727 83.2445 16.8289 83.2445 16.9999C83.2445 17.1709 83.1992 17.3345 83.1169 17.4757C83.0346 17.6245 82.9144 17.736 82.7649 17.8178C82.6145 17.8995 82.4499 17.9442 82.2625 17.9442C82.0827 17.9442 81.9105 17.907 81.7602 17.8178ZM82.6825 17.7137C82.8094 17.6468 82.9001 17.5427 82.9749 17.4237C83.0421 17.2973 83.0799 17.156 83.0799 16.9999C83.0799 16.8438 83.0421 16.7025 82.9749 16.5761C82.9069 16.4498 82.8094 16.3531 82.6825 16.2861C82.5549 16.2192 82.4197 16.182 82.2625 16.182C82.1054 16.182 81.9702 16.2192 81.8425 16.2861C81.7156 16.3531 81.625 16.4572 81.5502 16.5761C81.483 16.7025 81.4452 16.8438 81.4452 16.9999C81.4452 17.156 81.483 17.2973 81.5502 17.4237C81.6182 17.5501 81.7156 17.6468 81.8425 17.7137C81.9702 17.7806 82.1054 17.8178 82.2625 17.8178C82.4197 17.8178 82.5624 17.7806 82.6825 17.7137ZM81.8576 17.4534V17.3865L81.8727 17.3791H81.9181C81.9324 17.3791 81.9475 17.3716 81.9551 17.3642C81.9702 17.3494 81.9702 17.342 81.9702 17.3271V16.6356C81.9702 16.6207 81.9626 16.6059 81.9551 16.5984C81.94 16.5835 81.9324 16.5835 81.9181 16.5835H81.8727L81.8576 16.5761V16.5092L81.8727 16.5018H82.2625C82.3751 16.5018 82.4574 16.5241 82.5247 16.5761C82.5926 16.6282 82.6221 16.6951 82.6221 16.7843C82.6221 16.8512 82.6002 16.9181 82.5473 16.9627C82.4952 17.0148 82.4348 17.0446 82.36 17.052L82.4499 17.0817L82.6221 17.3568C82.6372 17.3791 82.6523 17.3865 82.675 17.3865H82.7196L82.7271 17.394V17.4609L82.7196 17.4683H82.4876L82.4725 17.4609L82.2323 17.0594H82.1726V17.3271C82.1726 17.342 82.1802 17.3568 82.1877 17.3642C82.2029 17.3791 82.2104 17.3791 82.2248 17.3791H82.2701L82.2852 17.3865V17.4534L82.2701 17.4609H81.8727L81.8576 17.4534ZM82.2399 16.9627C82.3003 16.9627 82.3524 16.9479 82.3826 16.9107C82.4121 16.8809 82.4348 16.8289 82.4348 16.7694C82.4348 16.7099 82.4196 16.6653 82.3902 16.6282C82.36 16.591 82.3147 16.5761 82.2625 16.5761H82.2323C82.2172 16.5761 82.2029 16.5835 82.1953 16.591C82.1802 16.6058 82.1802 16.6133 82.1802 16.6282V16.9627H82.2399Z" fill="#001E2B"/>
</svg>
