<svg width="59" height="31" viewBox="0 0 59 31" fill="none" xmlns="http://www.w3.org/2000/svg">
<g clip-path="url(#clip0_145_509)">
<path d="M0.697266 28.1735H2.60446V20.6421L5.55706 27.2077C5.90543 28.0024 6.38231 28.2835 7.31749 28.2835C8.25281 28.2835 8.71126 28.0024 9.05978 27.2077L12.0122 20.6421V28.1735H13.9196V20.6545C13.9196 19.9209 13.626 19.5663 13.021 19.383C11.5722 18.9306 10.6002 19.3218 10.16 20.3L7.26251 26.7797L4.4567 20.3C4.03493 19.3218 3.04463 18.9306 1.5959 19.383C0.99067 19.5663 0.697266 19.9209 0.697266 20.6545V28.1735Z" fill="#00618A"/>
<path d="M15.5054 22.0434H17.412V26.1926C17.3942 26.418 17.4843 26.9471 18.5291 26.9635C19.0622 26.9719 22.643 26.9635 22.6764 26.9635V22.0232H24.5875C24.5963 22.0232 24.5856 28.7604 24.5857 28.7891C24.5963 30.4507 22.524 30.8116 21.5689 30.8395H15.5468V29.5565C15.5574 29.5565 21.5645 29.5576 21.5796 29.5562C22.8071 29.4265 22.6622 28.8164 22.662 28.611V28.1108H18.6083C16.7223 28.0934 15.5213 27.2704 15.5064 26.3234C15.5051 26.2357 15.5471 22.0848 15.5054 22.0434Z" fill="#00618A"/>
<path d="M26.0574 28.1735H31.5405C32.1824 28.1735 32.806 28.0391 33.3012 27.8066C34.1263 27.4278 34.5298 26.9144 34.5298 26.2417V24.8481C34.5298 24.2978 34.0714 23.7843 33.1727 23.4421C32.6958 23.2585 32.1091 23.1608 31.5405 23.1608H29.2298C28.4597 23.1608 28.0929 22.9285 28.0013 22.4151C27.9829 22.3539 27.9829 22.3049 27.9829 22.2439V21.3759C27.9829 21.3269 27.9829 21.2779 28.0013 21.2169C28.0929 20.8257 28.2947 20.7155 28.9732 20.6545C29.0283 20.6545 29.1015 20.6421 29.1566 20.6421H34.6032V19.3708H29.2482C28.478 19.3708 28.0745 19.4197 27.7078 19.5296C26.5708 19.8843 26.0756 20.4467 26.0756 21.4248V22.5373C26.0756 23.3932 27.0477 24.1267 28.6797 24.2978C28.8633 24.31 29.0465 24.3222 29.2298 24.3222H31.2104C31.2839 24.3222 31.3573 24.3222 31.4122 24.3345C32.0174 24.3835 32.2741 24.4934 32.4576 24.7135C32.5675 24.8234 32.6042 24.9336 32.6042 25.0558V26.1684C32.6042 26.3029 32.5126 26.4742 32.3293 26.6208C32.1642 26.7675 31.8891 26.8654 31.5223 26.8899C31.4489 26.8899 31.394 26.902 31.3206 26.902H26.0574V28.1735Z" fill="#E48E00"/>
<path d="M46.4277 25.9606C46.4277 27.2687 47.3996 28.0024 49.3619 28.1491C49.5452 28.1613 49.7288 28.1735 49.912 28.1735H54.8819V26.902H49.8754C48.7567 26.902 48.335 26.6208 48.335 25.9484V19.3708H46.4277V25.9606Z" fill="#E48E00"/>
<path d="M35.7471 26.0273V21.4944C35.7471 20.3428 36.5557 19.6443 38.1543 19.4238C38.3198 19.3994 38.5037 19.3871 38.669 19.3871H42.2892C42.4729 19.3871 42.6385 19.3994 42.8222 19.4238C44.4209 19.6443 45.2294 20.3428 45.2294 21.4944V26.0273C45.2294 26.9616 44.8861 27.4617 44.0946 27.7875L45.9734 29.4833H43.7589L42.239 28.1113L40.7088 28.2083H38.669C38.3198 28.2083 37.9524 28.1591 37.548 28.0489C36.3352 27.7182 35.7471 27.081 35.7471 26.0273ZM37.8056 25.9171C37.8056 25.9785 37.8239 26.0397 37.8423 26.1132C37.9525 26.64 38.4487 26.934 39.2021 26.934H40.9348L39.3432 25.4971H41.5577L42.9459 26.7503C43.2016 26.614 43.37 26.4055 43.4289 26.1377C43.4471 26.0765 43.4471 26.0152 43.4471 25.954V21.6047C43.4471 21.5557 43.4471 21.4944 43.4289 21.433C43.3185 20.9431 42.8223 20.6613 42.0873 20.6613H39.2021C38.3569 20.6613 37.8056 21.0289 37.8056 21.6047V25.9171Z" fill="#E48E00"/>
<path d="M56.5599 17.2616C55.3875 17.2298 54.492 17.3388 53.7264 17.6617C53.5088 17.7535 53.1619 17.7559 53.1264 18.0285C53.2459 18.1539 53.2645 18.341 53.3596 18.4952C53.5424 18.791 53.851 19.1874 54.1263 19.3953C54.4272 19.6224 54.7373 19.8654 55.0599 20.062C55.6336 20.4119 56.2742 20.6117 56.8266 20.9622C57.1522 21.1687 57.4756 21.4289 57.7933 21.6621C57.9503 21.7774 58.0559 21.9566 58.2599 22.0288C58.2599 22.0178 58.2599 22.0067 58.2599 21.9955C58.1527 21.859 58.1251 21.6713 58.0266 21.5287C57.8823 21.3844 57.7378 21.2399 57.5933 21.0954C57.1696 20.5329 56.6316 20.039 56.0598 19.6286C55.6039 19.3013 54.5833 18.8592 54.3931 18.3285C54.3819 18.3174 54.3709 18.3063 54.3597 18.2951C54.683 18.2587 55.0615 18.1417 55.3599 18.0618C55.8611 17.9274 56.3091 17.9622 56.8266 17.8285C57.0599 17.7618 57.2933 17.695 57.5267 17.6284C57.5267 17.5839 57.5267 17.5396 57.5267 17.4951C57.265 17.2266 57.0785 16.8713 56.7932 16.6283C56.0468 15.9927 55.232 15.3576 54.3931 14.8281C53.9278 14.5344 53.3527 14.3435 52.8597 14.0947C52.6938 14.011 52.4024 13.9675 52.2928 13.8279C52.0338 13.4977 51.8927 13.0791 51.6929 12.6945C51.2744 11.8887 50.8635 11.0086 50.4928 10.1609C50.2398 9.5828 50.0747 9.01266 49.7594 8.49402C48.2457 6.00538 46.6164 4.50326 44.0924 3.02682C43.5553 2.71283 42.9087 2.58882 42.2254 2.42682C41.8589 2.40463 41.492 2.38229 41.1253 2.3601C40.9015 2.26655 40.6687 1.99272 40.4587 1.86002C39.6225 1.33181 37.4778 0.182845 36.8585 1.69337C36.4675 2.64683 37.4429 3.57723 37.7918 4.06033C38.0367 4.39927 38.3502 4.77926 38.5251 5.16041C38.6402 5.41089 38.6601 5.66209 38.7586 5.92721C39.001 6.58015 39.2117 7.29053 39.5252 7.89402C39.6837 8.19932 39.8584 8.521 40.0587 8.79409C40.1815 8.96162 40.392 9.03543 40.4252 9.29417C40.2194 9.58222 40.2077 10.0294 40.092 10.3943C39.571 12.0371 39.7675 14.079 40.5253 15.2948C40.7579 15.668 41.3056 16.4685 42.0588 16.1616C42.7176 15.8932 42.5704 15.0617 42.7589 14.328C42.8015 14.1617 42.7753 14.0394 42.8588 13.928C42.8588 13.939 42.8588 13.9502 42.8588 13.9614C43.0589 14.3614 43.2589 14.7614 43.459 15.1613C43.903 15.8766 44.6912 16.624 45.3591 17.1284C45.7054 17.3899 45.9781 17.8422 46.4258 17.9951C46.4258 17.984 46.4258 17.973 46.4258 17.9617C46.4146 17.9617 46.4036 17.9617 46.3924 17.9617C46.3057 17.8264 46.1699 17.7704 46.0592 17.6617C45.7982 17.406 45.5082 17.088 45.2924 16.795C44.6849 15.9703 44.1481 15.0676 43.659 14.128C43.4254 13.6794 43.2224 13.1844 43.0254 12.7279C42.9496 12.5518 42.9504 12.2856 42.7923 12.1944C42.5766 12.529 42.259 12.7995 42.0922 13.1946C41.8254 13.8261 41.791 14.5962 41.6922 15.3948C41.6337 15.4157 41.6597 15.4013 41.6254 15.428C41.1611 15.3161 40.9979 14.8381 40.8255 14.4281C40.389 13.3911 40.3079 11.7213 40.692 10.5277C40.7913 10.2189 41.2404 9.24617 41.0587 8.96089C40.9719 8.67619 40.6856 8.51157 40.5253 8.29403C40.3271 8.02513 40.1291 7.6711 39.9919 7.36058C39.6347 6.55202 39.4679 5.64439 39.0919 4.82713C38.9122 4.4364 38.6082 4.04104 38.3585 3.69369C38.0821 3.30892 37.7726 3.02551 37.5585 2.56011C37.4823 2.39477 37.3788 2.13007 37.4918 1.96009C37.5277 1.84536 37.5784 1.79751 37.6918 1.76009C37.8852 1.611 38.4237 1.80969 38.6251 1.89338C39.1597 2.11542 39.6059 2.32688 40.0587 2.62682C40.2761 2.77098 40.4959 3.04973 40.7587 3.1269C40.8586 3.1269 40.9587 3.1269 41.0587 3.1269C41.528 3.2348 42.0537 3.1604 42.4921 3.29353C43.2671 3.52908 43.9615 3.89543 44.5923 4.29369C46.5138 5.50691 48.0847 7.23397 49.1594 9.29417C49.3323 9.62587 49.4071 9.94248 49.5594 10.2943C49.8666 11.0038 50.2537 11.7339 50.5593 12.4278C50.8644 13.12 51.1617 13.8187 51.5928 14.3947C51.8196 14.6976 52.6951 14.86 53.093 15.0281C53.3719 15.146 53.8289 15.2688 54.0931 15.428C54.5977 15.7325 55.0866 16.0949 55.5599 16.4283C55.7965 16.5949 56.5237 16.9604 56.5599 17.2616Z" fill="#00618A"/>
<path fill-rule="evenodd" clip-rule="evenodd" d="M41.6587 4.56037C41.4143 4.55587 41.2414 4.58706 41.0586 4.62695C41.0586 4.6381 41.0586 4.64927 41.0586 4.6603C41.0697 4.6603 41.0809 4.6603 41.092 4.6603C41.2086 4.89989 41.4144 5.05406 41.5586 5.26045C41.6697 5.49381 41.7808 5.72718 41.8921 5.96039C41.903 5.94935 41.9143 5.9382 41.9253 5.92717C42.1318 5.7817 42.2264 5.54893 42.2253 5.19374C42.1426 5.10671 42.1304 4.99751 42.0587 4.89365C41.9633 4.75529 41.7789 4.67669 41.6587 4.56037Z" fill="#00618A"/>
<path fill-rule="evenodd" clip-rule="evenodd" d="M55.7771 26.8658C55.7771 27.7055 56.4405 28.2714 57.1826 28.2714C57.9248 28.2714 58.5882 27.7055 58.5882 26.8658C58.5882 26.0263 57.9248 25.4604 57.1826 25.4604C56.4405 25.4604 55.7771 26.0263 55.7771 26.8658ZM58.2733 26.8658C58.2733 27.503 57.7862 27.9791 57.1826 27.9791C56.5718 27.9791 56.092 27.503 56.092 26.8658C56.092 26.2287 56.5718 25.7526 57.1826 25.7526C57.7862 25.7526 58.2733 26.2287 58.2733 26.8658ZM57.5614 27.668H57.8761L57.4152 26.9634C57.6625 26.9371 57.8498 26.8171 57.8498 26.5249C57.8498 26.1987 57.6438 26.0639 57.2465 26.0639H56.6205V27.668H56.8904V26.9746H57.1415L57.5614 27.668ZM56.8904 26.7497V26.2887H57.2014C57.3626 26.2887 57.5575 26.3187 57.5575 26.5061C57.5575 26.7308 57.3814 26.7497 57.1789 26.7497H56.8904Z" fill="#E48E00"/>
</g>
<defs>
<clipPath id="clip0_145_509">
<rect width="58.0693" height="30" fill="white" transform="translate(0.587646 0.872314)"/>
</clipPath>
</defs>
</svg>
