<svg width="71" height="21" viewBox="0 0 71 21" fill="none" xmlns="http://www.w3.org/2000/svg">
<path d="M62.4436 20.835C62.2607 20.835 62.0904 20.786 61.9322 20.7002L60.3128 19.7324C60.0692 19.5977 60.1911 19.5487 60.2641 19.5242C60.5927 19.4139 60.6536 19.3894 60.9946 19.1934C61.0311 19.1689 61.0798 19.1812 61.1163 19.2057L62.3581 19.953C62.4068 19.9775 62.4676 19.9775 62.5041 19.953L67.3622 17.123C67.4106 17.0985 67.4355 17.0495 67.4355 16.9883V11.3406C67.4355 11.2794 67.4106 11.2304 67.3622 11.2059L62.5041 8.3882C62.4555 8.36367 62.3946 8.36367 62.3581 8.3882L57.5003 11.2059C57.4517 11.2304 57.4273 11.2916 57.4273 11.3406V16.9883C57.4273 17.0373 57.4517 17.0985 57.5003 17.123L58.8273 17.8948C59.5456 18.2623 59.9961 17.8335 59.9961 17.4048V11.8306C59.9961 11.7572 60.057 11.6837 60.1424 11.6837H60.7634C60.8364 11.6837 60.9094 11.7449 60.9094 11.8306V17.4048C60.9094 18.3726 60.3858 18.9361 59.4726 18.9361C59.1927 18.9361 58.9736 18.9361 58.3525 18.6299L57.0741 17.8948C56.7577 17.711 56.5627 17.368 56.5627 17.0005V11.3529C56.5627 10.9853 56.7577 10.6423 57.0741 10.4585L61.9322 7.62863C62.2364 7.45712 62.6504 7.45712 62.9547 7.62863L67.8127 10.4585C68.1291 10.6423 68.3238 10.9853 68.3238 11.3529V17.0005C68.3238 17.368 68.1291 17.711 67.8127 17.8948L62.9547 20.7247C62.8086 20.786 62.6261 20.835 62.4436 20.835Z" fill="#5FA04E"/>
<path d="M63.9534 16.9514C61.8224 16.9514 61.384 15.9713 61.384 15.1382C61.384 15.0647 61.4449 14.9912 61.5301 14.9912H62.1632C62.2364 14.9912 62.2973 15.0402 62.2973 15.1137C62.3946 15.763 62.6745 16.0816 63.9653 16.0816C64.9881 16.0816 65.4264 15.8488 65.4264 15.2975C65.4264 14.979 65.3042 14.7462 63.7095 14.5869C62.3825 14.4522 61.5544 14.1582 61.5544 13.0923C61.5544 12.1 62.3825 11.512 63.7703 11.512C65.3291 11.512 66.096 12.051 66.1934 13.2271C66.1934 13.2639 66.1812 13.3006 66.1571 13.3374C66.1323 13.3619 66.096 13.3864 66.059 13.3864H65.4137C65.3534 13.3864 65.2923 13.3374 65.2801 13.2761C65.1338 12.6023 64.7563 12.3818 63.7582 12.3818C62.638 12.3818 62.5042 12.7738 62.5042 13.0678C62.5042 13.4231 62.6624 13.5334 64.1722 13.7294C65.6696 13.9254 66.3759 14.2072 66.3759 15.2607C66.3759 16.3388 65.487 16.9514 63.9534 16.9514Z" fill="#5FA04E"/>
<path d="M70.9667 11.022C70.9667 11.5366 70.5403 11.9654 70.0286 11.9654C69.5175 11.9654 69.0913 11.5488 69.0913 11.022C69.0913 10.483 69.5297 10.0787 70.0286 10.0787C70.5281 10.0787 70.9667 10.4952 70.9667 11.022ZM69.2376 11.022C69.2376 11.4631 69.5908 11.8183 70.0165 11.8183C70.4551 11.8183 70.8083 11.4508 70.8083 11.022C70.8083 10.581 70.4551 10.238 70.0165 10.238C69.603 10.238 69.2376 10.581 69.2376 11.022ZM69.676 10.4952H70.0413C70.163 10.4952 70.4067 10.4952 70.4067 10.777C70.4067 10.973 70.2845 11.0098 70.2112 11.0343C70.3577 11.0465 70.3696 11.1446 70.3818 11.2793C70.394 11.3651 70.4067 11.5121 70.4308 11.5611H70.2112C70.2112 11.5121 70.1749 11.2426 70.1749 11.2303C70.163 11.1691 70.1387 11.1446 70.0657 11.1446H69.8829V11.5733H69.676V10.4952ZM69.8707 10.9608H70.0286C70.163 10.9608 70.1871 10.8628 70.1871 10.8138C70.1871 10.6668 70.0897 10.6668 70.0286 10.6668H69.8588V10.9608H69.8707Z" fill="#5FA04E"/>
<path fill-rule="evenodd" clip-rule="evenodd" d="M11.8317 11.0992C11.8317 10.8787 11.71 10.6705 11.5152 10.5602L6.36512 7.55874C6.2799 7.50974 6.1825 7.48524 6.08509 7.47302C6.07292 7.47302 6.03641 7.47302 6.03641 7.47302C5.939 7.47302 5.84159 7.50974 5.75638 7.55874L0.594139 10.5479C0.399339 10.6582 0.277588 10.8665 0.277588 11.0992L0.289763 19.1358C0.289763 19.2461 0.350639 19.3563 0.448039 19.4053C0.54544 19.4666 0.667191 19.4666 0.752418 19.4053L3.82054 17.6412C4.01534 17.5309 4.13708 17.3227 4.13708 17.1022V13.3411C4.13708 13.1206 4.25883 12.9123 4.45365 12.8021L5.75638 12.0426C5.85379 11.9813 5.96334 11.9568 6.07292 11.9568C6.1825 11.9568 6.29207 11.9813 6.37731 12.0426L7.68001 12.8021C7.8748 12.9123 7.99661 13.1206 7.99661 13.3411V17.1022C7.99661 17.3227 8.11835 17.5309 8.31315 17.6412L11.3569 19.4053C11.4543 19.4666 11.576 19.4666 11.6735 19.4053C11.7709 19.3563 11.8317 19.2461 11.8317 19.1358V11.0992Z" fill="#333333"/>
<path fill-rule="evenodd" clip-rule="evenodd" d="M36.6448 0.0367526C36.5472 -0.0122509 36.4255 -0.0122509 36.3403 0.0367526C36.2429 0.0980062 36.1821 0.196013 36.1821 0.306271V8.26929C36.1821 8.34279 36.1456 8.41628 36.0723 8.46535C35.9993 8.50208 35.9262 8.50208 35.8532 8.46535L34.5627 7.71801C34.368 7.6078 34.1365 7.6078 33.9418 7.71801L28.7795 10.7195C28.5848 10.8298 28.4631 11.038 28.4631 11.2585V17.2491C28.4631 17.4697 28.5848 17.6779 28.7795 17.7882L33.9418 20.7897C34.1365 20.8999 34.368 20.8999 34.5627 20.7897L39.725 17.7882C39.9197 17.6779 40.0414 17.4697 40.0414 17.2491V2.31541C40.0414 2.08264 39.9197 1.87438 39.725 1.76412L36.6448 0.0367526ZM36.1699 15.2768C36.1699 15.338 36.1456 15.387 36.0969 15.4115L34.3312 16.4406C34.2826 16.4651 34.2217 16.4651 34.173 16.4406L32.4077 15.4115C32.359 15.387 32.3346 15.3258 32.3346 15.2768V13.2187C32.3346 13.1574 32.359 13.1084 32.4077 13.0839L34.173 12.0548C34.2217 12.0303 34.2826 12.0303 34.3312 12.0548L36.0969 13.0839C36.1456 13.1084 36.1699 13.1697 36.1699 13.2187V15.2768Z" fill="#333333"/>
<path fill-rule="evenodd" clip-rule="evenodd" d="M53.823 13.1696C54.018 13.0593 54.1275 12.8511 54.1275 12.6305V11.1727C54.1275 10.9522 54.0058 10.7439 53.823 10.6337L48.6973 7.64449C48.5025 7.53419 48.2713 7.53419 48.0763 7.64449L42.9143 10.6459C42.7194 10.7562 42.5977 10.9644 42.5977 11.185V17.1756C42.5977 17.3961 42.7194 17.6044 42.9143 17.7146L48.0398 20.6548C48.2348 20.7651 48.466 20.7651 48.6486 20.6548L51.7534 18.9152C51.8508 18.8662 51.9116 18.756 51.9116 18.6457C51.9116 18.5354 51.8508 18.4252 51.7534 18.3762L46.5668 15.3747C46.4694 15.3135 46.4086 15.2155 46.4086 15.1052V13.2308C46.4086 13.1206 46.4694 13.0103 46.5668 12.9613L48.1861 12.0302C48.2835 11.969 48.4052 11.969 48.5025 12.0302L50.1219 12.9613C50.2192 13.0226 50.2801 13.1206 50.2801 13.2308V14.7009C50.2801 14.8112 50.3409 14.9214 50.4386 14.9704C50.5359 15.0317 50.6576 15.0317 50.755 14.9704L53.823 13.1696Z" fill="#333333"/>
<path fill-rule="evenodd" clip-rule="evenodd" d="M48.3078 12.888C48.3443 12.8635 48.3933 12.8635 48.4298 12.888L49.4158 13.4638C49.4523 13.4883 49.4766 13.5251 49.4766 13.5741V14.7256C49.4766 14.7746 49.4523 14.8114 49.4158 14.8359L48.4298 15.4117C48.3933 15.4362 48.3443 15.4362 48.3078 15.4117L47.3218 14.8359C47.2853 14.8114 47.261 14.7746 47.261 14.7256V13.5741C47.261 13.5251 47.2853 13.4883 47.3218 13.4638L48.3078 12.888Z" fill="#5FA04E"/>
<path d="M20.4634 7.66896C20.2686 7.55875 20.0372 7.55875 19.8424 7.66896L14.7167 10.646C14.5219 10.7562 14.4124 10.9645 14.4124 11.185V17.1511C14.4124 17.3717 14.5341 17.5799 14.7167 17.6902L19.8424 20.6671C20.0372 20.7773 20.2686 20.7773 20.4634 20.6671L25.5891 17.6902C25.7839 17.5799 25.8934 17.3717 25.8934 17.1511V11.185C25.8934 10.9645 25.7717 10.7562 25.5891 10.646L20.4634 7.66896Z" fill="url(#paint0_linear_145_510)"/>
<path d="M25.6012 10.646L20.4512 7.66901C20.4025 7.64451 20.3416 7.62001 20.2929 7.60779L14.522 17.5432C14.5707 17.6044 14.6315 17.6534 14.6924 17.6902L19.8425 20.6672C19.9885 20.7529 20.159 20.7774 20.3173 20.7284L25.7352 10.7563C25.6987 10.7073 25.6499 10.6705 25.6012 10.646Z" fill="url(#paint1_linear_145_510)"/>
<path d="M25.6016 17.6901C25.7477 17.6043 25.8573 17.4573 25.906 17.298L20.2689 7.59538C20.1228 7.57089 19.9645 7.58308 19.8306 7.66888L14.717 10.6336L20.2323 20.7528C20.3054 20.7405 20.3907 20.716 20.4637 20.6793L25.6016 17.6901Z" fill="url(#paint2_linear_145_510)"/>
<defs>
<linearGradient id="paint0_linear_145_510" x1="22.2404" y1="9.88613" x2="17.5595" y2="19.3762" gradientUnits="userSpaceOnUse">
<stop stop-color="#3F873F"/>
<stop offset="0.3296" stop-color="#3F8B3D"/>
<stop offset="0.6367" stop-color="#3E9638"/>
<stop offset="0.9341" stop-color="#3DA92E"/>
<stop offset="1" stop-color="#3DAE2B"/>
</linearGradient>
<linearGradient id="paint1_linear_145_510" x1="19.3739" y1="14.8648" x2="32.4348" y2="5.27446" gradientUnits="userSpaceOnUse">
<stop offset="0.1376" stop-color="#3F873F"/>
<stop offset="0.4016" stop-color="#52A044"/>
<stop offset="0.7129" stop-color="#64B749"/>
<stop offset="0.9081" stop-color="#6ABF4B"/>
</linearGradient>
<linearGradient id="paint2_linear_145_510" x1="14.2248" y1="14.166" x2="26.0854" y2="14.166" gradientUnits="userSpaceOnUse">
<stop offset="0.0919165" stop-color="#6ABF4B"/>
<stop offset="0.2871" stop-color="#64B749"/>
<stop offset="0.5984" stop-color="#52A044"/>
<stop offset="0.8624" stop-color="#3F873F"/>
</linearGradient>
</defs>
</svg>
