<svg width="71" height="21" viewBox="0 0 71 21" fill="none" xmlns="http://www.w3.org/2000/svg">
<mask id="mask0_129_59" style="mask-type:luminance" maskUnits="userSpaceOnUse" x="0" y="0" width="71" height="21">
<path d="M70.6363 0H0V21H70.6363V0Z" fill="white"/>
</mask>
<g mask="url(#mask0_129_59)">
<path d="M62.166 20.835C61.9832 20.835 61.8128 20.786 61.6546 20.7002L60.0352 19.7324C59.7916 19.5977 59.9135 19.5487 59.9866 19.5242C60.3151 19.4139 60.376 19.3894 60.717 19.1934C60.7535 19.1689 60.8022 19.1812 60.8387 19.2057L62.0805 19.953C62.1292 19.9775 62.19 19.9775 62.2265 19.953L67.0846 17.123C67.133 17.0985 67.1579 17.0495 67.1579 16.9883V11.3406C67.1579 11.2794 67.133 11.2304 67.0846 11.2059L62.2265 8.3882C62.1779 8.36367 62.117 8.36367 62.0805 8.3882L57.2227 11.2059C57.1741 11.2304 57.1497 11.2916 57.1497 11.3406V16.9883C57.1497 17.0373 57.1741 17.0985 57.2227 17.123L58.5498 17.8948C59.268 18.2623 59.7186 17.8335 59.7186 17.4048V11.8306C59.7186 11.7572 59.7794 11.6837 59.8649 11.6837H60.4858C60.5588 11.6837 60.6318 11.7449 60.6318 11.8306V17.4048C60.6318 18.3726 60.1083 18.9361 59.195 18.9361C58.9151 18.9361 58.6961 18.9361 58.0749 18.6299L56.7965 17.8948C56.4801 17.711 56.2852 17.368 56.2852 17.0005V11.3529C56.2852 10.9853 56.4801 10.6423 56.7965 10.4585L61.6546 7.62863C61.9588 7.45712 62.3728 7.45712 62.6771 7.62863L67.5351 10.4585C67.8515 10.6423 68.0462 10.9853 68.0462 11.3529V17.0005C68.0462 17.368 67.8515 17.711 67.5351 17.8948L62.6771 20.7247C62.531 20.786 62.3485 20.835 62.166 20.835Z" fill="#5FA04E"/>
<path d="M63.6758 16.9514C61.5448 16.9514 61.1064 15.9713 61.1064 15.1382C61.1064 15.0647 61.1673 14.9912 61.2525 14.9912H61.8856C61.9588 14.9912 62.0197 15.0402 62.0197 15.1137C62.117 15.763 62.3969 16.0816 63.6877 16.0816C64.7105 16.0816 65.1489 15.8488 65.1489 15.2975C65.1489 14.979 65.0266 14.7462 63.4319 14.5869C62.1049 14.4522 61.2768 14.1582 61.2768 13.0923C61.2768 12.1 62.1049 11.512 63.4927 11.512C65.0515 11.512 65.8184 12.051 65.9158 13.2271C65.9158 13.2639 65.9036 13.3006 65.8796 13.3374C65.8547 13.3619 65.8184 13.3864 65.7814 13.3864H65.1362C65.0758 13.3864 65.0147 13.3374 65.0026 13.2761C64.8563 12.6023 64.4787 12.3818 63.4806 12.3818C62.3604 12.3818 62.2266 12.7738 62.2266 13.0678C62.2266 13.4231 62.3848 13.5334 63.8946 13.7294C65.392 13.9254 66.0983 14.2072 66.0983 15.2607C66.0983 16.3388 65.2094 16.9514 63.6758 16.9514Z" fill="#5FA04E"/>
<path d="M70.6894 11.022C70.6894 11.5366 70.2629 11.9654 69.7513 11.9654C69.2402 11.9654 68.814 11.5488 68.814 11.022C68.814 10.483 69.2523 10.0787 69.7513 10.0787C70.2508 10.0787 70.6894 10.4952 70.6894 11.022ZM68.9603 11.022C68.9603 11.4631 69.3134 11.8183 69.7391 11.8183C70.1778 11.8183 70.5309 11.4508 70.5309 11.022C70.5309 10.581 70.1778 10.238 69.7391 10.238C69.3256 10.238 68.9603 10.581 68.9603 11.022ZM69.3986 10.4952H69.764C69.8857 10.4952 70.1293 10.4952 70.1293 10.777C70.1293 10.973 70.0071 11.0098 69.9338 11.0343C70.0804 11.0465 70.0923 11.1446 70.1045 11.2793C70.1166 11.3651 70.1293 11.5121 70.1534 11.5611H69.9338C69.9338 11.5121 69.8976 11.2426 69.8976 11.2303C69.8857 11.1691 69.8613 11.1446 69.7883 11.1446H69.6055V11.5733H69.3986V10.4952ZM69.5933 10.9608H69.7513C69.8857 10.9608 69.9098 10.8628 69.9098 10.8138C69.9098 10.6668 69.8124 10.6668 69.7513 10.6668H69.5814V10.9608H69.5933Z" fill="#5FA04E"/>
<path fill-rule="evenodd" clip-rule="evenodd" d="M11.5541 11.0992C11.5541 10.8787 11.4324 10.6705 11.2376 10.5602L6.08753 7.55874C6.00232 7.50974 5.90491 7.48524 5.8075 7.47302C5.79533 7.47302 5.75882 7.47302 5.75882 7.47302C5.66141 7.47302 5.564 7.50974 5.47879 7.55874L0.316551 10.5479C0.121751 10.6582 0 10.8665 0 11.0992L0.0121751 19.1358C0.0121751 19.2461 0.0730507 19.3563 0.170451 19.4053C0.267852 19.4666 0.389603 19.4666 0.47483 19.4053L3.54296 17.6412C3.73775 17.5309 3.8595 17.3227 3.8595 17.1022V13.3411C3.8595 13.1206 3.98124 12.9123 4.17606 12.8021L5.47879 12.0426C5.5762 11.9813 5.68575 11.9568 5.79533 11.9568C5.90491 11.9568 6.01449 11.9813 6.09973 12.0426L7.40242 12.8021C7.59722 12.9123 7.71902 13.1206 7.71902 13.3411V17.1022C7.71902 17.3227 7.84077 17.5309 8.03556 17.6412L11.0794 19.4053C11.1767 19.4666 11.2985 19.4666 11.3959 19.4053C11.4933 19.3563 11.5541 19.2461 11.5541 19.1358V11.0992Z" fill="#333333"/>
<path fill-rule="evenodd" clip-rule="evenodd" d="M36.3672 0.0367526C36.2696 -0.0122509 36.1479 -0.0122509 36.0627 0.0367526C35.9653 0.0980062 35.9045 0.196013 35.9045 0.306271V8.26929C35.9045 8.34279 35.868 8.41628 35.7947 8.46535C35.7217 8.50208 35.6487 8.50208 35.5756 8.46535L34.2851 7.71801C34.0904 7.6078 33.8589 7.6078 33.6642 7.71801L28.502 10.7195C28.3072 10.8298 28.1855 11.038 28.1855 11.2585V17.2491C28.1855 17.4697 28.3072 17.6779 28.502 17.7882L33.6642 20.7897C33.8589 20.8999 34.0904 20.8999 34.2851 20.7897L39.4474 17.7882C39.6421 17.6779 39.7638 17.4697 39.7638 17.2491V2.31541C39.7638 2.08264 39.6421 1.87438 39.4474 1.76412L36.3672 0.0367526ZM35.8923 15.2768C35.8923 15.338 35.868 15.387 35.8193 15.4115L34.0537 16.4406C34.005 16.4651 33.9441 16.4651 33.8954 16.4406L32.1301 15.4115C32.0814 15.387 32.0571 15.3258 32.0571 15.2768V13.2187C32.0571 13.1574 32.0814 13.1084 32.1301 13.0839L33.8954 12.0548C33.9441 12.0303 34.005 12.0303 34.0537 12.0548L35.8193 13.0839C35.868 13.1084 35.8923 13.1697 35.8923 13.2187V15.2768Z" fill="#333333"/>
<path fill-rule="evenodd" clip-rule="evenodd" d="M53.5454 13.1696C53.7404 13.0593 53.8499 12.8511 53.8499 12.6305V11.1727C53.8499 10.9522 53.7282 10.7439 53.5454 10.6337L48.4197 7.64449C48.2249 7.53419 47.9937 7.53419 47.7988 7.64449L42.6367 10.6459C42.4418 10.7562 42.3201 10.9644 42.3201 11.185V17.1756C42.3201 17.3961 42.4418 17.6044 42.6367 17.7146L47.7622 20.6548C47.9572 20.7651 48.1884 20.7651 48.371 20.6548L51.4758 18.9152C51.5732 18.8662 51.634 18.756 51.634 18.6457C51.634 18.5354 51.5732 18.4252 51.4758 18.3762L46.2892 15.3747C46.1918 15.3135 46.131 15.2155 46.131 15.1052V13.2308C46.131 13.1206 46.1918 13.0103 46.2892 12.9613L47.9085 12.0302C48.0059 11.969 48.1276 11.969 48.225 12.0302L49.8443 12.9613C49.9417 13.0226 50.0025 13.1206 50.0025 13.2308V14.7009C50.0025 14.8112 50.0633 14.9214 50.161 14.9704C50.2583 15.0317 50.38 15.0317 50.4774 14.9704L53.5454 13.1696Z" fill="#333333"/>
<path fill-rule="evenodd" clip-rule="evenodd" d="M48.0302 12.888C48.0668 12.8635 48.1157 12.8635 48.1522 12.888L49.1382 13.4638C49.1747 13.4883 49.1991 13.5251 49.1991 13.5741V14.7256C49.1991 14.7746 49.1747 14.8114 49.1382 14.8359L48.1522 15.4117C48.1157 15.4362 48.0668 15.4362 48.0302 15.4117L47.0442 14.8359C47.0077 14.8114 46.9834 14.7746 46.9834 14.7256V13.5741C46.9834 13.5251 47.0077 13.4883 47.0442 13.4638L48.0302 12.888Z" fill="#5FA04E"/>
<path d="M20.1858 7.66896C19.991 7.55875 19.7596 7.55875 19.5648 7.66896L14.4391 10.646C14.2443 10.7562 14.1348 10.9645 14.1348 11.185V17.1511C14.1348 17.3717 14.2565 17.5799 14.4391 17.6902L19.5648 20.6671C19.7596 20.7773 19.991 20.7773 20.1858 20.6671L25.3115 17.6902C25.5063 17.5799 25.6158 17.3717 25.6158 17.1511V11.185C25.6158 10.9645 25.4941 10.7562 25.3115 10.646L20.1858 7.66896Z" fill="url(#paint0_linear_129_59)"/>
<path d="M25.3237 10.646L20.1736 7.66901C20.1249 7.64451 20.0641 7.62001 20.0153 7.60779L14.2444 17.5432C14.2931 17.6044 14.3539 17.6534 14.4148 17.6902L19.5649 20.6672C19.711 20.7529 19.8814 20.7774 20.0397 20.7284L25.4576 10.7563C25.4211 10.7073 25.3724 10.6705 25.3237 10.646Z" fill="url(#paint1_linear_129_59)"/>
<path d="M25.324 17.6901C25.4701 17.6043 25.5797 17.4573 25.6284 17.298L19.9913 7.59538C19.8452 7.57089 19.6869 7.58308 19.553 7.66888L14.4395 10.6336L19.9547 20.7528C20.0278 20.7405 20.1131 20.716 20.1861 20.6793L25.324 17.6901Z" fill="url(#paint2_linear_129_59)"/>
</g>
<defs>
<linearGradient id="paint0_linear_129_59" x1="21.9629" y1="9.88613" x2="17.2819" y2="19.3762" gradientUnits="userSpaceOnUse">
<stop stop-color="#3F873F"/>
<stop offset="0.3296" stop-color="#3F8B3D"/>
<stop offset="0.6367" stop-color="#3E9638"/>
<stop offset="0.9341" stop-color="#3DA92E"/>
<stop offset="1" stop-color="#3DAE2B"/>
</linearGradient>
<linearGradient id="paint1_linear_129_59" x1="19.0963" y1="14.8648" x2="32.1572" y2="5.27446" gradientUnits="userSpaceOnUse">
<stop offset="0.1376" stop-color="#3F873F"/>
<stop offset="0.4016" stop-color="#52A044"/>
<stop offset="0.7129" stop-color="#64B749"/>
<stop offset="0.9081" stop-color="#6ABF4B"/>
</linearGradient>
<linearGradient id="paint2_linear_129_59" x1="13.9472" y1="14.166" x2="25.8078" y2="14.166" gradientUnits="userSpaceOnUse">
<stop offset="0.0919165" stop-color="#6ABF4B"/>
<stop offset="0.2871" stop-color="#64B749"/>
<stop offset="0.5984" stop-color="#52A044"/>
<stop offset="0.8624" stop-color="#3F873F"/>
</linearGradient>
</defs>
</svg>
