<svg width="22" height="22" viewBox="0 0 22 22" fill="none" xmlns="http://www.w3.org/2000/svg">
<path d="M11 15.4102C16.5228 15.4102 21 13.3954 21 10.9102C21 8.42487 16.5228 6.41016 11 6.41016C5.47715 6.41016 1 8.42487 1 10.9102C1 13.3954 5.47715 15.4102 11 15.4102Z" stroke="#087EA4"/>
<path d="M7.10299 13.1603C9.86441 17.9432 13.8478 20.8131 16.0001 19.5705C18.1524 18.3279 17.6586 13.4432 14.8972 8.66025C12.1358 3.87733 8.15242 1.00736 6.0001 2.25C3.84779 3.49264 4.34156 8.37733 7.10299 13.1603Z" stroke="#087EA4"/>
<path d="M7.10299 8.66025C4.34156 13.4432 3.84779 18.3279 6.0001 19.5705C8.15242 20.8131 12.1358 17.9432 14.8972 13.1603C17.6586 8.37733 18.1524 3.49264 16.0001 2.25C13.8478 1.00736 9.86441 3.87733 7.10299 8.66025Z" stroke="#087EA4"/>
<path d="M11 12.9102C12.1046 12.9102 13 12.0147 13 10.9102C13 9.80559 12.1046 8.91016 11 8.91016C9.89543 8.91016 9 9.80559 9 10.9102C9 12.0147 9.89543 12.9102 11 12.9102Z" fill="#087EA4"/>
</svg>
