<svg width="24" height="24" viewBox="0 0 24 24" fill="none" xmlns="http://www.w3.org/2000/svg">
<path d="M16.3349 16.4975C17.2049 16.4075 17.8649 15.6575 17.8349 14.7575C17.8049 13.8575 17.0549 13.1375 16.1549 13.1375H16.0949C15.1649 13.1675 14.4449 13.9475 14.4749 14.8775C14.5049 15.3275 14.6849 15.7175 14.9549 15.9875C13.9349 17.9975 12.3749 19.4675 10.0349 20.6975C8.44489 21.5375 6.79489 21.8375 5.14489 21.6275C3.79489 21.4475 2.74489 20.8475 2.08489 19.8575C1.12489 18.3875 1.03489 16.7975 1.84489 15.2075C2.41489 14.0675 3.31489 13.2275 3.88489 12.8075C3.76489 12.4175 3.58489 11.7575 3.49489 11.2775C-0.855113 14.4275 -0.405113 18.6875 0.914887 20.6975C1.90489 22.1975 3.91489 23.1275 6.13489 23.1275C6.73489 23.1275 7.33489 23.0675 7.93489 22.9175C11.7749 22.1675 14.6849 19.8875 16.3349 16.4975Z" fill="#764ABC"/>
<path d="M21.6149 12.7774C19.3349 10.1074 15.9749 8.63743 12.1349 8.63743H11.6549C11.3849 8.09743 10.8149 7.73743 10.1849 7.73743H10.1249C9.19487 7.76743 8.47487 8.54743 8.50487 9.47743C8.53487 10.3774 9.28487 11.0974 10.1849 11.0974H10.2449C10.9049 11.0674 11.4749 10.6474 11.7149 10.0774H12.2549C14.5349 10.0774 16.6949 10.7374 18.6449 12.0274C20.1449 13.0174 21.2249 14.3074 21.8249 15.8674C22.3349 17.1274 22.3049 18.3574 21.7649 19.4074C20.9249 20.9974 19.5149 21.8674 17.6549 21.8674C16.4549 21.8674 15.3149 21.5074 14.7149 21.2374C14.3849 21.5374 13.7849 22.0174 13.3649 22.3174C14.6549 22.9174 15.9749 23.2474 17.2349 23.2474C20.1149 23.2474 22.2449 21.6574 23.0549 20.0674C23.9249 18.3274 23.8649 15.3274 21.6149 12.7774Z" fill="#764ABC"/>
<path d="M6.3749 17.0074C6.4049 17.9074 7.1549 18.6274 8.0549 18.6274H8.1149C9.0449 18.5974 9.7649 17.8174 9.7349 16.8874C9.7049 15.9874 8.9549 15.2674 8.0549 15.2674H7.9949C7.9349 15.2674 7.8449 15.2674 7.7849 15.2974C6.5549 13.2574 6.0449 11.0374 6.2249 8.63743C6.3449 6.83743 6.9449 5.27743 7.9949 3.98743C8.8649 2.87743 10.5449 2.33743 11.6849 2.30743C14.8649 2.24743 16.2149 6.20743 16.3049 7.79743C16.6949 7.88743 17.3549 8.09743 17.8049 8.24743C17.4449 3.38743 14.4449 0.867432 11.5649 0.867432C8.8649 0.867432 6.3749 2.81743 5.3849 5.69743C4.0049 9.53743 4.9049 13.2274 6.5849 16.1374C6.4349 16.3474 6.3449 16.6774 6.3749 17.0074Z" fill="#764ABC"/>
</svg>
