<svg width="30" height="30" viewBox="0 0 30 30" fill="none" xmlns="http://www.w3.org/2000/svg">
<g clip-path="url(#clip0_159_210)">
<path d="M15 28.3594C22.3782 28.3594 28.3594 22.3782 28.3594 15C28.3594 7.62182 22.3782 1.64062 15 1.64062C7.62182 1.64062 1.64062 7.62182 1.64062 15C1.64062 22.3782 7.62182 28.3594 15 28.3594Z" stroke="#010101" stroke-width="2"/>
<path d="M11.4418 14.2605C14.6442 11.6442 17.7767 8.93715 21.0488 6.39758C19.3325 9.03489 17.5674 11.6372 15.8511 14.2743C14.379 14.2814 12.907 14.2815 11.4418 14.2605ZM14.1488 15.7186C15.6279 15.7186 17.1 15.7186 18.5721 15.7395C15.3488 18.3418 12.2303 21.0697 8.95111 23.6023C10.6674 20.965 12.4325 18.3559 14.1488 15.7186Z" fill="#010101"/>
</g>
<defs>
<clipPath id="clip0_159_210">
<rect width="30" height="30" fill="white"/>
</clipPath>
</defs>
</svg>
