<svg width="36" height="21" viewBox="0 0 36 21" fill="none" xmlns="http://www.w3.org/2000/svg">
<path fill-rule="evenodd" clip-rule="evenodd" d="M17.5117 0C12.8416 0 9.92353 2.32098 8.75549 6.96294C10.5069 4.64196 12.5499 3.77177 14.8846 4.35167C16.2167 4.68245 17.1692 5.64324 18.2226 6.70696C19.9397 8.43912 21.9272 10.4437 26.2672 10.4437C30.9366 10.4437 33.8553 8.12275 35.0226 3.48147C33.272 5.80245 31.2289 6.67265 28.8942 6.09206C27.5615 5.76128 26.6089 4.80049 25.5555 3.73745C23.8384 2.00392 21.8517 0 17.5117 0ZM8.75549 10.4437C4.08608 10.4437 1.16735 12.7647 0 17.4067C1.75137 15.0857 3.79441 14.2155 6.12843 14.7954C7.46118 15.1262 8.41373 16.087 9.46716 17.1507C11.1842 18.8828 13.171 20.8875 17.5117 20.8875C22.1811 20.8875 25.0998 18.5672 26.2672 13.9252C24.5158 16.2462 22.4727 17.1164 20.138 16.5365C18.806 16.205 17.8534 15.2442 16.8 14.1812C15.0829 12.449 13.0955 10.4437 8.75549 10.4437Z" fill="#38BDF8"/>
</svg>
